<svg width="306" height="186" xmlns="http://www.w3.org/2000/svg" xmlns:xlink="http://www.w3.org/1999/xlink" xml:space="preserve" overflow="hidden"><g><path d="M0 186 305.328 186 305.328 0 0 0Z" fill="#FFFFFF" transform="matrix(1.0014 0 0 1 0.121763 1.18001e-14)"/><path d="M31.3923 164.778 301.343 164.778 301.343 3.98523 31.3923 3.98523Z" fill="#FFFFFF" transform="matrix(1.0014 0 0 1 0.121763 1.18001e-14)"/><path d="M0 0 0 1.93726" stroke="#000000" stroke-width="0.442803" stroke-linejoin="round" fill="none" transform="matrix(1.0014 0 0 1 56.6179 164.778)"/><path d="M1.33187 3.42481C1.12574 3.21868 0.864129 3.02049 0.547018 2.83022L0.547018 3.28211C0.943407 3.55165 1.26844 3.86876 1.52214 4.23344L1.80754 4.23344 1.80754 0.1427 1.33187 0.1427 1.33187 3.42481Z" transform="matrix(1.0014 0 0 -1 50.5209 172.838)"/><path d="M2.83022 2.02159 0.118917 2.02159 0.118917 2.40212 2.83022 2.40212 2.83022 2.02159Z" transform="matrix(1.0014 0 0 -1 53.5695 172.838)"/><path d="M1.33187 3.42481C1.12574 3.21868 0.864129 3.02049 0.547018 2.83022L0.547018 3.28211C0.943407 3.55165 1.26844 3.86876 1.52214 4.23344L1.80754 4.23344 1.80754 0.1427 1.33187 0.1427 1.33187 3.42481Z" transform="matrix(1.0014 0 0 -1 56.618 172.838)"/><path d="M0.21405 2.41354C0.229906 2.83403 0.289206 3.16699 0.39195 3.41244 0.495329 3.65852 0.642151 3.86083 0.832418 4.01939 1.02268 4.17795 1.2564 4.25722 1.53355 4.25722 1.81134 4.25722 2.05329 4.14211 2.25942 3.91189 2.46555 3.6823 2.60031 3.3931 2.66374 3.04427 2.72716 2.69545 2.74682 2.29493 2.72272 1.84274 2.69925 1.39117 2.61998 1.02268 2.48489 0.737284 2.35043 0.451884 2.14843 0.25369 1.87889 0.1427 1.60934 0.0317111 1.33979 0.0434443 1.07025 0.1779 0.800707 0.312989 0.61044 0.491523 0.499451 0.713501 0.388461 0.935479 0.309184 1.16919 0.261617 1.41463 0.21405 1.66072 0.198194 1.99368 0.21405 2.41354ZM0.713501 2.55624C0.665934 2.12053 0.68179 1.73207 0.761068 1.39085 0.840345 1.05027 0.970999 0.808635 1.15302 0.665934 1.33567 0.523234 1.52214 0.495329 1.7124 0.582217 1.90267 0.66974 2.04125 0.844151 2.12814 1.10545 2.21566 1.36738 2.25942 1.65278 2.25942 1.96165 2.25942 2.27115 2.24737 2.55275 2.22327 2.80644 2.1998 3.06013 2.12845 3.29003 2.00922 3.49616 1.89062 3.70228 1.73207 3.80914 1.53355 3.81676 1.33567 3.825 1.16127 3.72606 1.01032 3.51994 0.860007 3.31381 0.761068 2.99259 0.713501 2.55624Z" transform="matrix(1.0014 0 0 -1 59.6665 172.838)"/><path d="M0 0 0 1.93726" stroke="#000000" stroke-width="0.442803" stroke-linejoin="round" fill="none" transform="matrix(1.0014 0 0 1 100.66 164.778)"/><path d="M1.33187 3.42481C1.12574 3.21868 0.864129 3.02049 0.547018 2.83022L0.547018 3.28211C0.943407 3.55165 1.26844 3.86876 1.52214 4.23344L1.80754 4.23344 1.80754 0.1427 1.33187 0.1427 1.33187 3.42481Z" transform="matrix(1.0014 0 0 -1 93.0385 172.838)"/><path d="M1.33187 3.42481C1.12574 3.21868 0.864129 3.02049 0.547018 2.83022L0.547018 3.28211C0.943407 3.55165 1.26844 3.86876 1.52214 4.23344L1.80754 4.23344 1.80754 0.1427 1.33187 0.1427 1.33187 3.42481Z" transform="matrix(1.0014 0 0 -1 96.0871 172.838)"/><path d="M2.83022 2.02159 0.118917 2.02159 0.118917 2.40212 2.83022 2.40212 2.83022 2.02159Z" transform="matrix(1.0014 0 0 -1 99.1356 172.838)"/><path d="M0.2854 0.237834C0.301256 0.475667 0.412245 0.689718 0.618368 0.879985 0.82449 1.07025 1.08611 1.36738 1.40322 1.77139 1.72033 2.17602 1.92645 2.48933 2.02159 2.7113 2.11672 2.93328 2.15223 3.12355 2.12814 3.28211 2.10467 3.44066 2.02951 3.57131 1.90267 3.67406 1.77583 3.77744 1.629 3.8212 1.4622 3.80534 1.29603 3.78948 1.13748 3.72606 0.986534 3.61507 0.836223 3.50408 0.721429 3.3376 0.642151 3.11562L0.190267 3.18697C0.317111 3.55165 0.479473 3.81707 0.67735 3.98324 0.875863 4.15004 1.10989 4.24136 1.37944 4.25722 1.53799 4.27308 1.68069 4.26895 1.80754 4.24486 1.93438 4.22139 2.06503 4.1659 2.19949 4.07837 2.33458 3.99149 2.44557 3.86083 2.53245 3.68642 2.61998 3.51201 2.65168 3.30177 2.62759 3.05569 2.60412 2.81024 2.4814 2.51692 2.25942 2.1757 2.03745 1.83512 1.60934 1.30016 0.975118 0.570801L2.68752 0.570801 2.68752 0.1427 0.2854 0.1427 0.2854 0.237834Z" transform="matrix(1.0014 0 0 -1 102.184 172.838)"/><path d="M0.21405 2.41354C0.229906 2.83403 0.289206 3.16699 0.39195 3.41244 0.495329 3.65852 0.642151 3.86083 0.832418 4.01939 1.02268 4.17795 1.2564 4.25722 1.53355 4.25722 1.81134 4.25722 2.05329 4.14211 2.25942 3.91189 2.46555 3.6823 2.60031 3.3931 2.66374 3.04427 2.72716 2.69545 2.74682 2.29493 2.72272 1.84274 2.69925 1.39117 2.61998 1.02268 2.48489 0.737284 2.35043 0.451884 2.14843 0.25369 1.87889 0.1427 1.60934 0.0317111 1.33979 0.0434443 1.07025 0.1779 0.800707 0.312989 0.61044 0.491523 0.499451 0.713501 0.388461 0.935479 0.309184 1.16919 0.261617 1.41463 0.21405 1.66072 0.198194 1.99368 0.21405 2.41354ZM0.713501 2.55624C0.665934 2.12053 0.68179 1.73207 0.761068 1.39085 0.840345 1.05027 0.970999 0.808635 1.15302 0.665934 1.33567 0.523234 1.52214 0.495329 1.7124 0.582217 1.90267 0.66974 2.04125 0.844151 2.12814 1.10545 2.21566 1.36738 2.25942 1.65278 2.25942 1.96165 2.25942 2.27115 2.24737 2.55275 2.22327 2.80644 2.1998 3.06013 2.12845 3.29003 2.00922 3.49616 1.89062 3.70228 1.73207 3.80914 1.53355 3.81676 1.33567 3.825 1.16127 3.72606 1.01032 3.51994 0.860007 3.31381 0.761068 2.99259 0.713501 2.55624Z" transform="matrix(1.0014 0 0 -1 105.233 172.838)"/><path d="M0 0 0 1.93726" stroke="#000000" stroke-width="0.442803" stroke-linejoin="round" fill="none" transform="matrix(1.0014 0 0 1 144.702 164.778)"/><path d="M0.2854 0.237834C0.301256 0.475667 0.412245 0.689718 0.618368 0.879985 0.82449 1.07025 1.08611 1.36738 1.40322 1.77139 1.72033 2.17602 1.92645 2.48933 2.02159 2.7113 2.11672 2.93328 2.15223 3.12355 2.12814 3.28211 2.10467 3.44066 2.02951 3.57131 1.90267 3.67406 1.77583 3.77744 1.629 3.8212 1.4622 3.80534 1.29603 3.78948 1.13748 3.72606 0.986534 3.61507 0.836223 3.50408 0.721429 3.3376 0.642151 3.11562L0.190267 3.18697C0.317111 3.55165 0.479473 3.81707 0.67735 3.98324 0.875863 4.15004 1.10989 4.24136 1.37944 4.25722 1.53799 4.27308 1.68069 4.26895 1.80754 4.24486 1.93438 4.22139 2.06503 4.1659 2.19949 4.07837 2.33458 3.99149 2.44557 3.86083 2.53245 3.68642 2.61998 3.51201 2.65168 3.30177 2.62759 3.05569 2.60412 2.81024 2.4814 2.51692 2.25942 2.1757 2.03745 1.83512 1.60934 1.30016 0.975118 0.570801L2.68752 0.570801 2.68752 0.1427 0.2854 0.1427 0.2854 0.237834Z" transform="matrix(1.0014 0 0 -1 137.081 172.838)"/><path d="M1.33187 3.42481C1.12574 3.21868 0.864129 3.02049 0.547018 2.83022L0.547018 3.28211C0.943407 3.55165 1.26844 3.86876 1.52214 4.23344L1.80754 4.23344 1.80754 0.1427 1.33187 0.1427 1.33187 3.42481Z" transform="matrix(1.0014 0 0 -1 140.129 172.838)"/><path d="M2.83022 2.02159 0.118917 2.02159 0.118917 2.40212 2.83022 2.40212 2.83022 2.02159Z" transform="matrix(1.0014 0 0 -1 143.178 172.838)"/><path d="M0.237834 1.16539 0.665934 1.23674C0.729357 1.03061 0.832418 0.860007 0.975118 0.724917 1.11782 0.590462 1.29603 0.52704 1.50977 0.53465 1.72413 0.542895 1.89475 0.6301 2.02159 0.796267 2.14843 0.963065 2.20393 1.15333 2.18807 1.36707 2.17221 1.58143 2.08882 1.74792 1.93787 1.86652 1.78756 1.98575 1.54592 2.06915 1.21295 2.11672L1.21295 2.4259C1.54592 2.45761 1.78756 2.54482 1.93787 2.68752 2.08882 2.83022 2.15636 3.01637 2.1405 3.24595 2.12464 3.47618 2.02159 3.64266 1.83132 3.74541 1.64105 3.84879 1.43873 3.86083 1.22437 3.78156 1.01063 3.70228 0.840345 3.4803 0.713501 3.11562L0.2854 3.18697C0.380534 3.47237 0.511184 3.71021 0.67735 3.90047 0.844151 4.09074 1.07025 4.20173 1.35565 4.23344 1.64105 4.26515 1.89062 4.22932 2.10435 4.12594 2.31872 4.02319 2.46935 3.86464 2.55624 3.65027 2.64376 3.43654 2.65581 3.20283 2.59239 2.94914 2.52896 2.69545 2.34663 2.47347 2.04537 2.2832 2.26734 2.18807 2.43763 2.04537 2.55624 1.8551 2.67547 1.66484 2.71511 1.41495 2.67515 1.10545 2.63583 0.796584 2.49725 0.547018 2.25942 0.356751 2.02159 0.166484 1.75204 0.0751555 1.45079 0.0827661 1.14953 0.0910111 0.887912 0.186145 0.665934 0.368167 0.443957 0.550823 0.301256 0.816562 0.237834 1.16539Z" transform="matrix(1.0014 0 0 -1 146.226 172.838)"/><path d="M0.21405 2.41354C0.229906 2.83403 0.289206 3.16699 0.39195 3.41244 0.495329 3.65852 0.642151 3.86083 0.832418 4.01939 1.02268 4.17795 1.2564 4.25722 1.53355 4.25722 1.81134 4.25722 2.05329 4.14211 2.25942 3.91189 2.46555 3.6823 2.60031 3.3931 2.66374 3.04427 2.72716 2.69545 2.74682 2.29493 2.72272 1.84274 2.69925 1.39117 2.61998 1.02268 2.48489 0.737284 2.35043 0.451884 2.14843 0.25369 1.87889 0.1427 1.60934 0.0317111 1.33979 0.0434443 1.07025 0.1779 0.800707 0.312989 0.61044 0.491523 0.499451 0.713501 0.388461 0.935479 0.309184 1.16919 0.261617 1.41463 0.21405 1.66072 0.198194 1.99368 0.21405 2.41354ZM0.713501 2.55624C0.665934 2.12053 0.68179 1.73207 0.761068 1.39085 0.840345 1.05027 0.970999 0.808635 1.15302 0.665934 1.33567 0.523234 1.52214 0.495329 1.7124 0.582217 1.90267 0.66974 2.04125 0.844151 2.12814 1.10545 2.21566 1.36738 2.25942 1.65278 2.25942 1.96165 2.25942 2.27115 2.24737 2.55275 2.22327 2.80644 2.1998 3.06013 2.12845 3.29003 2.00922 3.49616 1.89062 3.70228 1.73207 3.80914 1.53355 3.81676 1.33567 3.825 1.16127 3.72606 1.01032 3.51994 0.860007 3.31381 0.761068 2.99259 0.713501 2.55624Z" transform="matrix(1.0014 0 0 -1 149.275 172.838)"/><path d="M0 0 0 1.93726" stroke="#000000" stroke-width="0.442803" stroke-linejoin="round" fill="none" transform="matrix(1.0014 0 0 1 188.744 164.778)"/><path d="M0.237834 1.16539 0.665934 1.23674C0.729357 1.03061 0.832418 0.860007 0.975118 0.724917 1.11782 0.590462 1.29603 0.52704 1.50977 0.53465 1.72413 0.542895 1.89475 0.6301 2.02159 0.796267 2.14843 0.963065 2.20393 1.15333 2.18807 1.36707 2.17221 1.58143 2.08882 1.74792 1.93787 1.86652 1.78756 1.98575 1.54592 2.06915 1.21295 2.11672L1.21295 2.4259C1.54592 2.45761 1.78756 2.54482 1.93787 2.68752 2.08882 2.83022 2.15636 3.01637 2.1405 3.24595 2.12464 3.47618 2.02159 3.64266 1.83132 3.74541 1.64105 3.84879 1.43873 3.86083 1.22437 3.78156 1.01063 3.70228 0.840345 3.4803 0.713501 3.11562L0.2854 3.18697C0.380534 3.47237 0.511184 3.71021 0.67735 3.90047 0.844151 4.09074 1.07025 4.20173 1.35565 4.23344 1.64105 4.26515 1.89062 4.22932 2.10435 4.12594 2.31872 4.02319 2.46935 3.86464 2.55624 3.65027 2.64376 3.43654 2.65581 3.20283 2.59239 2.94914 2.52896 2.69545 2.34663 2.47347 2.04537 2.2832 2.26734 2.18807 2.43763 2.04537 2.55624 1.8551 2.67547 1.66484 2.71511 1.41495 2.67515 1.10545 2.63583 0.796584 2.49725 0.547018 2.25942 0.356751 2.02159 0.166484 1.75204 0.0751555 1.45079 0.0827661 1.14953 0.0910111 0.887912 0.186145 0.665934 0.368167 0.443957 0.550823 0.301256 0.816562 0.237834 1.16539Z" transform="matrix(1.0014 0 0 -1 181.123 172.838)"/><path d="M1.33187 3.42481C1.12574 3.21868 0.864129 3.02049 0.547018 2.83022L0.547018 3.28211C0.943407 3.55165 1.26844 3.86876 1.52214 4.23344L1.80754 4.23344 1.80754 0.1427 1.33187 0.1427 1.33187 3.42481Z" transform="matrix(1.0014 0 0 -1 184.171 172.838)"/><path d="M2.83022 2.02159 0.118917 2.02159 0.118917 2.40212 2.83022 2.40212 2.83022 2.02159Z" transform="matrix(1.0014 0 0 -1 187.22 172.838)"/><path d="M1.90267 1.04647 0.0713501 1.04647 0.0713501 1.45079 1.9978 4.23344 2.35455 4.23344 2.35455 1.45079 2.92535 1.45079 2.92535 1.04647 2.35455 1.04647 2.35455 0.1427 1.90267 0.1427 1.90267 1.04647ZM1.90267 1.45079 1.90267 3.32967 0.570801 1.45079 1.90267 1.45079Z" transform="matrix(1.0014 0 0 -1 190.268 172.838)"/><path d="M0.21405 2.41354C0.229906 2.83403 0.289206 3.16699 0.39195 3.41244 0.495329 3.65852 0.642151 3.86083 0.832418 4.01939 1.02268 4.17795 1.2564 4.25722 1.53355 4.25722 1.81134 4.25722 2.05329 4.14211 2.25942 3.91189 2.46555 3.6823 2.60031 3.3931 2.66374 3.04427 2.72716 2.69545 2.74682 2.29493 2.72272 1.84274 2.69925 1.39117 2.61998 1.02268 2.48489 0.737284 2.35043 0.451884 2.14843 0.25369 1.87889 0.1427 1.60934 0.0317111 1.33979 0.0434443 1.07025 0.1779 0.800707 0.312989 0.61044 0.491523 0.499451 0.713501 0.388461 0.935479 0.309184 1.16919 0.261617 1.41463 0.21405 1.66072 0.198194 1.99368 0.21405 2.41354ZM0.713501 2.55624C0.665934 2.12053 0.68179 1.73207 0.761068 1.39085 0.840345 1.05027 0.970999 0.808635 1.15302 0.665934 1.33567 0.523234 1.52214 0.495329 1.7124 0.582217 1.90267 0.66974 2.04125 0.844151 2.12814 1.10545 2.21566 1.36738 2.25942 1.65278 2.25942 1.96165 2.25942 2.27115 2.24737 2.55275 2.22327 2.80644 2.1998 3.06013 2.12845 3.29003 2.00922 3.49616 1.89062 3.70228 1.73207 3.80914 1.53355 3.81676 1.33567 3.825 1.16127 3.72606 1.01032 3.51994 0.860007 3.31381 0.761068 2.99259 0.713501 2.55624Z" transform="matrix(1.0014 0 0 -1 193.317 172.838)"/><path d="M0 0 0 1.93726" stroke="#000000" stroke-width="0.442803" stroke-linejoin="round" fill="none" transform="matrix(1.0014 0 0 1 232.786 164.778)"/><path d="M1.90267 1.04647 0.0713501 1.04647 0.0713501 1.45079 1.9978 4.23344 2.35455 4.23344 2.35455 1.45079 2.92535 1.45079 2.92535 1.04647 2.35455 1.04647 2.35455 0.1427 1.90267 0.1427 1.90267 1.04647ZM1.90267 1.45079 1.90267 3.32967 0.570801 1.45079 1.90267 1.45079Z" transform="matrix(1.0014 0 0 -1 225.165 172.838)"/><path d="M1.33187 3.42481C1.12574 3.21868 0.864129 3.02049 0.547018 2.83022L0.547018 3.28211C0.943407 3.55165 1.26844 3.86876 1.52214 4.23344L1.80754 4.23344 1.80754 0.1427 1.33187 0.1427 1.33187 3.42481Z" transform="matrix(1.0014 0 0 -1 228.213 172.838)"/><path d="M2.83022 2.02159 0.118917 2.02159 0.118917 2.40212 2.83022 2.40212 2.83022 2.02159Z" transform="matrix(1.0014 0 0 -1 231.262 172.838)"/><path d="M0.523234 1.26052C0.634224 0.832418 0.82449 0.594584 1.09404 0.547018 1.36358 0.499451 1.58143 0.52704 1.7476 0.629784 1.9144 0.733162 2.03332 0.867934 2.10435 1.0341 2.17602 1.2009 2.20773 1.38736 2.19949 1.59349 2.19188 1.79961 2.13638 1.97402 2.033 2.11672 1.93026 2.25942 1.79961 2.35455 1.64105 2.40212 1.48249 2.44969 1.30397 2.44969 1.10545 2.40212 0.907573 2.35455 0.745212 2.24356 0.618368 2.06915L0.21405 2.11672C0.245761 2.21185 0.39639 2.89365 0.665934 4.16209L2.54482 4.16209 2.54482 3.73399 1.02268 3.73399C0.943407 3.30589 0.864129 2.965 0.784851 2.7113 1.02268 2.8223 1.24466 2.87367 1.45079 2.86542 1.65691 2.85781 1.8551 2.81024 2.04537 2.72272 2.23564 2.63583 2.37422 2.51692 2.4611 2.36597 2.54863 2.21566 2.61205 2.06503 2.65137 1.91409 2.69133 1.76377 2.70719 1.60141 2.69894 1.427 2.69133 1.25259 2.65581 1.07406 2.59239 0.891401 2.52896 0.709379 2.43383 0.55875 2.30699 0.439517 2.18015 0.320917 2.02539 0.225783 1.84274 0.154116 1.66072 0.0830832 1.45079 0.0554945 1.21295 0.0713501 0.975118 0.0872057 0.749017 0.174411 0.53465 0.332967 0.320917 0.491523 0.174411 0.761068 0.0951335 1.1416L0.523234 1.26052Z" transform="matrix(1.0014 0 0 -1 234.31 172.838)"/><path d="M0.21405 2.41354C0.229906 2.83403 0.289206 3.16699 0.39195 3.41244 0.495329 3.65852 0.642151 3.86083 0.832418 4.01939 1.02268 4.17795 1.2564 4.25722 1.53355 4.25722 1.81134 4.25722 2.05329 4.14211 2.25942 3.91189 2.46555 3.6823 2.60031 3.3931 2.66374 3.04427 2.72716 2.69545 2.74682 2.29493 2.72272 1.84274 2.69925 1.39117 2.61998 1.02268 2.48489 0.737284 2.35043 0.451884 2.14843 0.25369 1.87889 0.1427 1.60934 0.0317111 1.33979 0.0434443 1.07025 0.1779 0.800707 0.312989 0.61044 0.491523 0.499451 0.713501 0.388461 0.935479 0.309184 1.16919 0.261617 1.41463 0.21405 1.66072 0.198194 1.99368 0.21405 2.41354ZM0.713501 2.55624C0.665934 2.12053 0.68179 1.73207 0.761068 1.39085 0.840345 1.05027 0.970999 0.808635 1.15302 0.665934 1.33567 0.523234 1.52214 0.495329 1.7124 0.582217 1.90267 0.66974 2.04125 0.844151 2.12814 1.10545 2.21566 1.36738 2.25942 1.65278 2.25942 1.96165 2.25942 2.27115 2.24737 2.55275 2.22327 2.80644 2.1998 3.06013 2.12845 3.29003 2.00922 3.49616 1.89062 3.70228 1.73207 3.80914 1.53355 3.81676 1.33567 3.825 1.16127 3.72606 1.01032 3.51994 0.860007 3.31381 0.761068 2.99259 0.713501 2.55624Z" transform="matrix(1.0014 0 0 -1 237.359 172.838)"/><path d="M0 0 0 1.93726" stroke="#000000" stroke-width="0.442803" stroke-linejoin="round" fill="none" transform="matrix(1.0014 0 0 1 276.828 164.778)"/><path d="M0.523234 1.26052C0.634224 0.832418 0.82449 0.594584 1.09404 0.547018 1.36358 0.499451 1.58143 0.52704 1.7476 0.629784 1.9144 0.733162 2.03332 0.867934 2.10435 1.0341 2.17602 1.2009 2.20773 1.38736 2.19949 1.59349 2.19188 1.79961 2.13638 1.97402 2.033 2.11672 1.93026 2.25942 1.79961 2.35455 1.64105 2.40212 1.48249 2.44969 1.30397 2.44969 1.10545 2.40212 0.907573 2.35455 0.745212 2.24356 0.618368 2.06915L0.21405 2.11672C0.245761 2.21185 0.39639 2.89365 0.665934 4.16209L2.54482 4.16209 2.54482 3.73399 1.02268 3.73399C0.943407 3.30589 0.864129 2.965 0.784851 2.7113 1.02268 2.8223 1.24466 2.87367 1.45079 2.86542 1.65691 2.85781 1.8551 2.81024 2.04537 2.72272 2.23564 2.63583 2.37422 2.51692 2.4611 2.36597 2.54863 2.21566 2.61205 2.06503 2.65137 1.91409 2.69133 1.76377 2.70719 1.60141 2.69894 1.427 2.69133 1.25259 2.65581 1.07406 2.59239 0.891401 2.52896 0.709379 2.43383 0.55875 2.30699 0.439517 2.18015 0.320917 2.02539 0.225783 1.84274 0.154116 1.66072 0.0830832 1.45079 0.0554945 1.21295 0.0713501 0.975118 0.0872057 0.749017 0.174411 0.53465 0.332967 0.320917 0.491523 0.174411 0.761068 0.0951335 1.1416L0.523234 1.26052Z" transform="matrix(1.0014 0 0 -1 267.682 172.838)"/><path d="M1.33187 3.42481C1.12574 3.21868 0.864129 3.02049 0.547018 2.83022L0.547018 3.28211C0.943407 3.55165 1.26844 3.86876 1.52214 4.23344L1.80754 4.23344 1.80754 0.1427 1.33187 0.1427 1.33187 3.42481Z" transform="matrix(1.0014 0 0 -1 270.731 172.838)"/><path d="M2.83022 2.02159 0.118917 2.02159 0.118917 2.40212 2.83022 2.40212 2.83022 2.02159Z" transform="matrix(1.0014 0 0 -1 273.779 172.838)"/><path d="M1.33187 3.42481C1.12574 3.21868 0.864129 3.02049 0.547018 2.83022L0.547018 3.28211C0.943407 3.55165 1.26844 3.86876 1.52214 4.23344L1.80754 4.23344 1.80754 0.1427 1.33187 0.1427 1.33187 3.42481Z" transform="matrix(1.0014 0 0 -1 276.828 172.838)"/><path d="M0.21405 2.41354C0.229906 2.83403 0.289206 3.16699 0.39195 3.41244 0.495329 3.65852 0.642151 3.86083 0.832418 4.01939 1.02268 4.17795 1.2564 4.25722 1.53355 4.25722 1.81134 4.25722 2.05329 4.14211 2.25942 3.91189 2.46555 3.6823 2.60031 3.3931 2.66374 3.04427 2.72716 2.69545 2.74682 2.29493 2.72272 1.84274 2.69925 1.39117 2.61998 1.02268 2.48489 0.737284 2.35043 0.451884 2.14843 0.25369 1.87889 0.1427 1.60934 0.0317111 1.33979 0.0434443 1.07025 0.1779 0.800707 0.312989 0.61044 0.491523 0.499451 0.713501 0.388461 0.935479 0.309184 1.16919 0.261617 1.41463 0.21405 1.66072 0.198194 1.99368 0.21405 2.41354ZM0.713501 2.55624C0.665934 2.12053 0.68179 1.73207 0.761068 1.39085 0.840345 1.05027 0.970999 0.808635 1.15302 0.665934 1.33567 0.523234 1.52214 0.495329 1.7124 0.582217 1.90267 0.66974 2.04125 0.844151 2.12814 1.10545 2.21566 1.36738 2.25942 1.65278 2.25942 1.96165 2.25942 2.27115 2.24737 2.55275 2.22327 2.80644 2.1998 3.06013 2.12845 3.29003 2.00922 3.49616 1.89062 3.70228 1.73207 3.80914 1.53355 3.81676 1.33567 3.825 1.16127 3.72606 1.01032 3.51994 0.860007 3.31381 0.761068 2.99259 0.713501 2.55624Z" transform="matrix(1.0014 0 0 -1 279.876 172.838)"/><path d="M0.21405 2.41354C0.229906 2.83403 0.289206 3.16699 0.39195 3.41244 0.495329 3.65852 0.642151 3.86083 0.832418 4.01939 1.02268 4.17795 1.2564 4.25722 1.53355 4.25722 1.81134 4.25722 2.05329 4.14211 2.25942 3.91189 2.46555 3.6823 2.60031 3.3931 2.66374 3.04427 2.72716 2.69545 2.74682 2.29493 2.72272 1.84274 2.69925 1.39117 2.61998 1.02268 2.48489 0.737284 2.35043 0.451884 2.14843 0.25369 1.87889 0.1427 1.60934 0.0317111 1.33979 0.0434443 1.07025 0.1779 0.800707 0.312989 0.61044 0.491523 0.499451 0.713501 0.388461 0.935479 0.309184 1.16919 0.261617 1.41463 0.21405 1.66072 0.198194 1.99368 0.21405 2.41354ZM0.713501 2.55624C0.665934 2.12053 0.68179 1.73207 0.761068 1.39085 0.840345 1.05027 0.970999 0.808635 1.15302 0.665934 1.33567 0.523234 1.52214 0.495329 1.7124 0.582217 1.90267 0.66974 2.04125 0.844151 2.12814 1.10545 2.21566 1.36738 2.25942 1.65278 2.25942 1.96165 2.25942 2.27115 2.24737 2.55275 2.22327 2.80644 2.1998 3.06013 2.12845 3.29003 2.00922 3.49616 1.89062 3.70228 1.73207 3.80914 1.53355 3.81676 1.33567 3.825 1.16127 3.72606 1.01032 3.51994 0.860007 3.31381 0.761068 2.99259 0.713501 2.55624Z" transform="matrix(1.0014 0 0 -1 282.925 172.838)"/><path d="M5.29288 2.17942C5.27558 1.91997 5.26694 1.66051 5.26694 1.40106L5.26694 0.389182C5.26694 0.0432425 5.27558-0.294049 5.29288-0.622692L4.72208-0.622692 4.72208-0.259455 1.89402-0.259455 1.89402-0.648637 1.34917-0.648637C1.36647-0.2854 1.37511 0.103782 1.37511 0.51891L1.37511 1.40106C1.37511 1.62592 1.36647 1.88538 1.34917 2.17942L5.29288 2.17942ZM4.30695 4.20317C4.53182 4.09939 4.73073 4.02155 4.9037 3.96966 4.78262 3.7794 4.69164 3.62788 4.63075 3.5151 4.57056 3.40301 4.49722 3.26049 4.41073 3.08751L5.24099 3.08751C5.58693 3.08751 5.91557 3.09616 6.22692 3.11346L6.22692 2.67239C5.91557 2.68969 5.58693 2.69833 5.24099 2.69833L1.427 2.69833C1.08107 2.69833 0.752419 2.68969 0.441073 2.67239L0.441073 3.11346C0.769717 3.09616 1.09836 3.08751 1.427 3.08751L2.17942 3.08751C2.04105 3.45075 1.88538 3.7448 1.7124 3.96966 1.86808 4.05614 2.0151 4.14263 2.15348 4.22912 2.37834 3.88318 2.5686 3.58048 2.72428 3.32102 2.60319 3.25183 2.47347 3.174 2.33509 3.08751L3.89182 3.08751C4.09939 3.55453 4.23776 3.92641 4.30695 4.20317ZM3.37291 5.4745C3.494 5.16315 3.57183 4.9037 3.60642 4.69613L4.92964 4.69613C5.1718 4.69613 5.4572 4.70478 5.78585 4.72208L5.78585 4.28101C5.43991 4.29831 5.15451 4.30695 4.92964 4.30695L1.68646 4.30695C1.35781 4.30695 1.03782 4.29831 0.726474 4.28101L0.726474 4.72208C1.03782 4.70478 1.35781 4.69613 1.68646 4.69613L3.00968 4.69613C2.99238 4.9037 2.9232 5.11991 2.80211 5.34477 2.99238 5.37936 3.18265 5.42261 3.37291 5.4745ZM4.72208 0.129727 4.72208 0.752419 1.89402 0.752419 1.89402 0.129727 4.72208 0.129727ZM4.72208 1.1416 4.72208 1.76429 1.89402 1.76429 1.89402 1.1416 4.72208 1.1416Z" transform="matrix(1.0014 0 0 -1 146.769 181.185)"/><path d="M4.35884 0.207564C4.32425 0.415128 4.23776 0.622692 4.09939 0.830256 4.44532 0.830256 4.70893 0.847553 4.89021 0.882147 5.07217 0.91674 5.1718 1.02052 5.1891 1.19349L5.24099 2.59455 3.03562 2.59455 3.03562 0.337291C3.03562 0.0259455 3.04427-0.294049 3.06157-0.622692L2.46482-0.622692C2.49941-0.311346 2.51671 0.0086485 2.51671 0.337291L2.51671 2.59455 1.94591 2.59455C1.37511 2.59455 0.91674 2.5859 0.570801 2.5686L0.570801 3.06157C0.934038 3.04427 1.30592 3.03562 1.68646 3.03562L5.83774 3.03562C5.78585 2.30915 5.75125 1.72105 5.73395 1.27133 5.71665 0.821608 5.58693 0.540358 5.34477 0.427582 5.10262 0.315497 4.77397 0.242158 4.35884 0.207564ZM2.5686 4.09939C2.5686 3.78804 2.57725 3.51994 2.59455 3.29508L2.02375 3.29508C2.04105 3.55453 2.04969 3.82263 2.04969 4.09939L1.16755 4.09939C0.92539 4.09939 0.657286 4.08209 0.363237 4.0475L0.363237 4.56641C0.657286 4.54911 0.92539 4.54046 1.16755 4.54046L2.04969 4.54046C2.04969 4.86911 2.04105 5.14585 2.02375 5.37072L2.59455 5.37072C2.57725 5.14585 2.5686 4.86911 2.5686 4.54046L3.94372 4.54046C3.94372 4.8864 3.93507 5.16315 3.91777 5.37072L4.51452 5.37072C4.49722 5.16315 4.48857 4.8864 4.48857 4.54046L5.31883 4.54046C5.64747 4.54046 5.95016 4.54911 6.22692 4.56641L6.22692 4.07344C5.95016 4.09074 5.64747 4.09939 5.31883 4.09939L4.48857 4.09939C4.48857 3.82263 4.49722 3.55453 4.51452 3.29508L3.91777 3.29508C3.93507 3.57183 3.94372 3.83993 3.94372 4.09939L2.5686 4.09939Z" transform="matrix(1.0014 0 0 -1 153.42 181.185)"/><path d="M1.81618 2.9059 1.81618 4.6183C1.81618 4.77397 1.80754 4.99884 1.79024 5.29288L2.36104 5.29288C2.34374 4.96423 2.33509 4.74803 2.33509 4.64424L2.33509 2.9059 5.4745 2.9059C5.69936 2.9059 5.94152 2.91454 6.20097 2.93184L6.20097 2.41293C5.87233 2.43023 5.56964 2.43888 5.29288 2.43888L3.78804 2.43888C3.90912 2.09294 4.09489 1.75565 4.34535 1.427 4.5965 1.09836 4.89505 0.825759 5.24099 0.6092 5.58693 0.393334 5.89827 0.242158 6.17503 0.155673 5.95016 0.017297 5.7772-0.155673 5.65612-0.363237 5.29288-0.17297 4.95559 0.051891 4.64424 0.311346 4.3329 0.570801 4.05614 0.886298 3.81399 1.25784 3.57183 1.63007 3.39021 2.02375 3.26913 2.43888L2.33509 2.43888 2.33509 0.389182C2.8367 0.700528 3.174 0.934038 3.34697 1.08971 3.46805 0.899444 3.58912 0.726474 3.71021 0.570801 3.38156 0.415128 3.05292 0.22071 2.72428-0.0124538 2.39563-0.246309 2.15348-0.441073 1.9978-0.596746 1.85943-0.40648 1.7297-0.242158 1.60862-0.103782 1.74699 0.034594 1.81618 0.216212 1.81618 0.441073L1.81618 2.43888 1.21944 2.43888C0.977281 2.43888 0.700528 2.43023 0.389182 2.41293L0.389182 2.93184C0.700528 2.91454 0.959983 2.9059 1.16755 2.9059L1.81618 2.9059ZM5.08532 4.87775C4.89505 4.72208 4.6138 4.45813 4.24157 4.0859 3.87003 3.71436 3.50264 3.35561 3.1394 3.00968 2.98373 3.21724 2.854 3.35561 2.75022 3.42481 3.04427 3.63237 3.37291 3.92641 3.73615 4.30695 4.09939 4.68749 4.37614 5.01613 4.56641 5.29288 4.70478 5.1718 4.87775 5.03343 5.08532 4.87775Z" transform="matrix(1.0014 0 0 -1 160.072 181.185)"/><path d="M1.81618 1.73835C2.3005 1.72105 2.68969 1.7124 2.98373 1.7124L5.39666 1.7124C5.24099 1.43565 5.05073 1.1589 4.82586 0.882147 4.601 0.605395 4.38479 0.380534 4.17722 0.207564 4.40209 0.103782 4.72208 0.017297 5.13721-0.051891 5.55234-0.121079 5.95016-0.155673 6.3307-0.155673 6.22692-0.259455 6.13178-0.432425 6.0453-0.674583 5.54369-0.605395 5.10262-0.523061 4.72208-0.427582 4.34154-0.332795 4.02155-0.224861 3.7621-0.103782 3.39886-0.259455 3.03977-0.384686 2.68484-0.479473 2.3306-0.574952 1.96321-0.648637 1.58268-0.700528 1.53078-0.562153 1.427-0.415128 1.27133-0.259455 1.58268-0.259455 1.93727-0.216212 2.33509-0.129727 2.73292-0.0432425 3.07887 0.069188 3.37291 0.207564 3.07887 0.449722 2.78481 0.821608 2.49077 1.32322L1.81618 1.29727 1.81618 1.73835ZM3.08751 5.26694C3.27778 5.31883 3.45075 5.37936 3.60642 5.44855 3.71021 5.25829 3.81399 5.00748 3.91777 4.69613L4.87775 4.69613C5.06802 4.69613 5.41396 4.70478 5.91557 4.72208L5.91557 4.25506C5.43125 4.27236 5.06802 4.28101 4.82586 4.28101L1.427 4.28101C1.427 3.50264 1.41836 2.87546 1.40106 2.39944 1.38376 1.92412 1.33602 1.45295 1.25784 0.985929 1.18034 0.51891 1.01187 0.0086485 0.752419-0.544855 0.596746-0.441073 0.432425-0.363237 0.259455-0.311346 0.536207 0.17297 0.713328 0.648637 0.790819 1.11566 0.869001 1.58268 0.912244 2.17942 0.920546 2.9059 0.929541 3.63237 0.92539 4.22912 0.908092 4.69613L3.32102 4.69613C3.25183 4.921 3.174 5.11126 3.08751 5.26694ZM2.5686 3.42481C2.5686 3.70156 2.55996 3.91777 2.54266 4.07344L3.08751 4.07344C3.07021 3.93507 3.06157 3.71885 3.06157 3.42481L4.46263 3.42481C4.46263 3.70156 4.45398 3.92641 4.43668 4.09939L4.98153 4.09939C4.96423 3.89182 4.95559 3.66696 4.95559 3.42481 5.33613 3.42481 5.66476 3.43345 5.94152 3.45075L5.94152 3.00968C5.68206 3.02698 5.35342 3.03562 4.95559 3.03562 4.95559 2.5686 4.96423 2.23131 4.98153 2.02375L2.54266 2.02375C2.55996 2.3005 2.5686 2.6378 2.5686 3.03562 2.36104 3.03562 2.05834 3.02698 1.66051 3.00968L1.66051 3.45075C2.05834 3.43345 2.36104 3.42481 2.5686 3.42481ZM4.46263 2.43888 4.46263 3.03562 3.06157 3.03562 3.06157 2.43888 4.46263 2.43888ZM2.98373 1.32322C3.2086 0.977281 3.4767 0.683231 3.78804 0.441073 4.0475 0.63134 4.3156 0.92539 4.59235 1.32322L3.00968 1.32322 2.98373 1.32322Z" transform="matrix(1.0014 0 0 -1 166.723 181.185)"/><path d="M6.07125 4.69613C5.81179 4.71343 5.46585 4.72208 5.03343 4.72208L1.19349 4.72208 1.19349-0.0778365 5.42261-0.0778365C5.76854-0.0778365 6.0453-0.069188 6.25286-0.051891L6.25286-0.51891C6.028-0.501613 5.73395-0.492964 5.37072-0.492964L0.648637-0.492964C0.665935-0.0778365 0.674583 0.224861 0.674583 0.415128L0.674583 4.35884C0.674583 4.65289 0.665935 4.921 0.648637 5.16315L6.07125 5.16315 6.07125 4.69613ZM2.36104 4.02155C2.96643 3.60642 3.494 3.19994 3.94372 2.80211 4.34154 3.26913 4.6356 3.73615 4.82586 4.20317 5.01613 4.08209 5.24099 3.96102 5.50044 3.83993 5.31018 3.71885 5.14585 3.55453 5.00748 3.34697 4.86911 3.1394 4.66154 2.84536 4.38479 2.46482 4.97289 1.9805 5.44855 1.50484 5.81179 1.03782 5.60423 0.899444 5.4572 0.752419 5.37072 0.596746 5.09396 1.01187 4.6356 1.48754 3.99561 2.02375 3.73615 1.7297 3.4722 1.46159 3.20375 1.21944 2.93599 0.977281 2.60319 0.709176 2.20537 0.415128 2.04969 0.570801 1.87672 0.700528 1.68646 0.80431 2.03239 0.959983 2.34374 1.14575 2.62049 1.36162 2.89725 1.57818 3.22589 1.91997 3.60642 2.38699 3.174 2.78481 2.6378 3.18265 1.9978 3.58048 2.17078 3.71885 2.29185 3.86588 2.36104 4.02155Z" transform="matrix(1.0014 0 0 -1 173.374 181.185)"/><path d="M4.6183 3.68426C4.601 3.35561 4.59235 3.07021 4.59235 2.82806L4.59235 1.45295C4.59235 1.22808 4.601 0.959983 4.6183 0.648637L1.9978 0.648637C2.0151 0.959983 2.02375 1.23674 2.02375 1.47889L2.02375 2.82806C2.02375 3.07021 2.0151 3.35561 1.9978 3.68426L4.6183 3.68426ZM6.01935 5.05937C6.00205 4.73073 5.99341 4.40209 5.99341 4.07344L5.99341 0.259455C6.01071-0.138376 5.90242-0.380534 5.66857-0.467019 5.4354-0.553504 5.18045-0.614044 4.9037-0.648637 4.8864-0.441073 4.81722-0.233509 4.69613-0.0259455 5.02478-0.0432425 5.2365-0.0259455 5.33128 0.0259455 5.42676 0.0778365 5.4745 0.190267 5.4745 0.363237L5.4745 4.6183 3.91777 4.6183C3.50264 4.6183 3.11346 4.60965 2.75022 4.59235L2.75022 5.08532C3.11346 5.06802 3.50264 5.05937 3.91777 5.05937L6.01935 5.05937ZM0.570801-0.544855C0.605395-0.198916 0.622692 0.164321 0.622692 0.544855L0.622692 3.26913C0.622692 3.63237 0.605395 3.93507 0.570801 4.17722L1.16755 4.17722C1.15025 3.91777 1.1416 3.66696 1.1416 3.42481L1.1416 0.51891C1.1416 0.17297 1.15025-0.181618 1.16755-0.544855L0.570801-0.544855ZM4.09939 1.06377 4.09939 2.02375 2.51671 2.02375 2.51671 1.06377 4.09939 1.06377ZM4.09939 2.43888 4.09939 3.26913 2.51671 3.26913 2.51671 2.43888 4.09939 2.43888ZM1.58268 5.50044C1.73835 5.29288 1.9805 4.96423 2.30915 4.51452 2.11889 4.42803 1.93727 4.3329 1.76429 4.22912 1.59132 4.57505 1.37511 4.9037 1.11566 5.21504 1.30592 5.35342 1.46159 5.44855 1.58268 5.50044Z" transform="matrix(1.0014 0 0 -1 180.026 181.185)"/><g><path d="M31.3923 164.778 301.343 164.778" stroke="#B0B0B0" stroke-width="0.332102" stroke-linejoin="round" stroke-dasharray="1.22878 0.531364" stroke-opacity="0.5" fill="none" transform="matrix(1.0014 0 0 1 0.121763 1.18001e-14)"/></g><path d="M0 0-1.93726 0" stroke="#000000" stroke-width="0.442803" stroke-linejoin="round" fill="none" transform="matrix(1.0014 0 0 1 31.5581 164.778)"/><path d="M0.21405 2.41354C0.229906 2.83403 0.289206 3.16699 0.39195 3.41244 0.495329 3.65852 0.642151 3.86083 0.832418 4.01939 1.02268 4.17795 1.2564 4.25722 1.53355 4.25722 1.81134 4.25722 2.05329 4.14211 2.25942 3.91189 2.46555 3.6823 2.60031 3.3931 2.66374 3.04427 2.72716 2.69545 2.74682 2.29493 2.72272 1.84274 2.69925 1.39117 2.61998 1.02268 2.48489 0.737284 2.35043 0.451884 2.14843 0.25369 1.87889 0.1427 1.60934 0.0317111 1.33979 0.0434443 1.07025 0.1779 0.800707 0.312989 0.61044 0.491523 0.499451 0.713501 0.388461 0.935479 0.309184 1.16919 0.261617 1.41463 0.21405 1.66072 0.198194 1.99368 0.21405 2.41354ZM0.713501 2.55624C0.665934 2.12053 0.68179 1.73207 0.761068 1.39085 0.840345 1.05027 0.970999 0.808635 1.15302 0.665934 1.33567 0.523234 1.52214 0.495329 1.7124 0.582217 1.90267 0.66974 2.04125 0.844151 2.12814 1.10545 2.21566 1.36738 2.25942 1.65278 2.25942 1.96165 2.25942 2.27115 2.24737 2.55275 2.22327 2.80644 2.1998 3.06013 2.12845 3.29003 2.00922 3.49616 1.89062 3.70228 1.73207 3.80914 1.53355 3.81676 1.33567 3.825 1.16127 3.72606 1.01032 3.51994 0.860007 3.31381 0.761068 2.99259 0.713501 2.55624Z" transform="matrix(1.0014 0 0 -1 24.6296 166.871)"/><g><path d="M31.3923 138.864 301.343 138.864" stroke="#B0B0B0" stroke-width="0.332102" stroke-linejoin="round" stroke-dasharray="1.22878 0.531364" stroke-opacity="0.5" fill="none" transform="matrix(1.0014 0 0 1 0.121763 1.18001e-14)"/></g><path d="M0 0-1.93726 0" stroke="#000000" stroke-width="0.442803" stroke-linejoin="round" fill="none" transform="matrix(1.0014 0 0 1 31.5581 138.864)"/><path d="M0.523234 1.26052C0.634224 0.832418 0.82449 0.594584 1.09404 0.547018 1.36358 0.499451 1.58143 0.52704 1.7476 0.629784 1.9144 0.733162 2.03332 0.867934 2.10435 1.0341 2.17602 1.2009 2.20773 1.38736 2.19949 1.59349 2.19188 1.79961 2.13638 1.97402 2.033 2.11672 1.93026 2.25942 1.79961 2.35455 1.64105 2.40212 1.48249 2.44969 1.30397 2.44969 1.10545 2.40212 0.907573 2.35455 0.745212 2.24356 0.618368 2.06915L0.21405 2.11672C0.245761 2.21185 0.39639 2.89365 0.665934 4.16209L2.54482 4.16209 2.54482 3.73399 1.02268 3.73399C0.943407 3.30589 0.864129 2.965 0.784851 2.7113 1.02268 2.8223 1.24466 2.87367 1.45079 2.86542 1.65691 2.85781 1.8551 2.81024 2.04537 2.72272 2.23564 2.63583 2.37422 2.51692 2.4611 2.36597 2.54863 2.21566 2.61205 2.06503 2.65137 1.91409 2.69133 1.76377 2.70719 1.60141 2.69894 1.427 2.69133 1.25259 2.65581 1.07406 2.59239 0.891401 2.52896 0.709379 2.43383 0.55875 2.30699 0.439517 2.18015 0.320917 2.02539 0.225783 1.84274 0.154116 1.66072 0.0830832 1.45079 0.0554945 1.21295 0.0713501 0.975118 0.0872057 0.749017 0.174411 0.53465 0.332967 0.320917 0.491523 0.174411 0.761068 0.0951335 1.1416L0.523234 1.26052Z" transform="matrix(1.0014 0 0 -1 15.484 140.958)"/><path d="M0.21405 2.41354C0.229906 2.83403 0.289206 3.16699 0.39195 3.41244 0.495329 3.65852 0.642151 3.86083 0.832418 4.01939 1.02268 4.17795 1.2564 4.25722 1.53355 4.25722 1.81134 4.25722 2.05329 4.14211 2.25942 3.91189 2.46555 3.6823 2.60031 3.3931 2.66374 3.04427 2.72716 2.69545 2.74682 2.29493 2.72272 1.84274 2.69925 1.39117 2.61998 1.02268 2.48489 0.737284 2.35043 0.451884 2.14843 0.25369 1.87889 0.1427 1.60934 0.0317111 1.33979 0.0434443 1.07025 0.1779 0.800707 0.312989 0.61044 0.491523 0.499451 0.713501 0.388461 0.935479 0.309184 1.16919 0.261617 1.41463 0.21405 1.66072 0.198194 1.99368 0.21405 2.41354ZM0.713501 2.55624C0.665934 2.12053 0.68179 1.73207 0.761068 1.39085 0.840345 1.05027 0.970999 0.808635 1.15302 0.665934 1.33567 0.523234 1.52214 0.495329 1.7124 0.582217 1.90267 0.66974 2.04125 0.844151 2.12814 1.10545 2.21566 1.36738 2.25942 1.65278 2.25942 1.96165 2.25942 2.27115 2.24737 2.55275 2.22327 2.80644 2.1998 3.06013 2.12845 3.29003 2.00922 3.49616 1.89062 3.70228 1.73207 3.80914 1.53355 3.81676 1.33567 3.825 1.16127 3.72606 1.01032 3.51994 0.860007 3.31381 0.761068 2.99259 0.713501 2.55624Z" transform="matrix(1.0014 0 0 -1 18.5325 140.958)"/><path d="M0.21405 2.41354C0.229906 2.83403 0.289206 3.16699 0.39195 3.41244 0.495329 3.65852 0.642151 3.86083 0.832418 4.01939 1.02268 4.17795 1.2564 4.25722 1.53355 4.25722 1.81134 4.25722 2.05329 4.14211 2.25942 3.91189 2.46555 3.6823 2.60031 3.3931 2.66374 3.04427 2.72716 2.69545 2.74682 2.29493 2.72272 1.84274 2.69925 1.39117 2.61998 1.02268 2.48489 0.737284 2.35043 0.451884 2.14843 0.25369 1.87889 0.1427 1.60934 0.0317111 1.33979 0.0434443 1.07025 0.1779 0.800707 0.312989 0.61044 0.491523 0.499451 0.713501 0.388461 0.935479 0.309184 1.16919 0.261617 1.41463 0.21405 1.66072 0.198194 1.99368 0.21405 2.41354ZM0.713501 2.55624C0.665934 2.12053 0.68179 1.73207 0.761068 1.39085 0.840345 1.05027 0.970999 0.808635 1.15302 0.665934 1.33567 0.523234 1.52214 0.495329 1.7124 0.582217 1.90267 0.66974 2.04125 0.844151 2.12814 1.10545 2.21566 1.36738 2.25942 1.65278 2.25942 1.96165 2.25942 2.27115 2.24737 2.55275 2.22327 2.80644 2.1998 3.06013 2.12845 3.29003 2.00922 3.49616 1.89062 3.70228 1.73207 3.80914 1.53355 3.81676 1.33567 3.825 1.16127 3.72606 1.01032 3.51994 0.860007 3.31381 0.761068 2.99259 0.713501 2.55624Z" transform="matrix(1.0014 0 0 -1 21.5811 140.958)"/><path d="M0.21405 2.41354C0.229906 2.83403 0.289206 3.16699 0.39195 3.41244 0.495329 3.65852 0.642151 3.86083 0.832418 4.01939 1.02268 4.17795 1.2564 4.25722 1.53355 4.25722 1.81134 4.25722 2.05329 4.14211 2.25942 3.91189 2.46555 3.6823 2.60031 3.3931 2.66374 3.04427 2.72716 2.69545 2.74682 2.29493 2.72272 1.84274 2.69925 1.39117 2.61998 1.02268 2.48489 0.737284 2.35043 0.451884 2.14843 0.25369 1.87889 0.1427 1.60934 0.0317111 1.33979 0.0434443 1.07025 0.1779 0.800707 0.312989 0.61044 0.491523 0.499451 0.713501 0.388461 0.935479 0.309184 1.16919 0.261617 1.41463 0.21405 1.66072 0.198194 1.99368 0.21405 2.41354ZM0.713501 2.55624C0.665934 2.12053 0.68179 1.73207 0.761068 1.39085 0.840345 1.05027 0.970999 0.808635 1.15302 0.665934 1.33567 0.523234 1.52214 0.495329 1.7124 0.582217 1.90267 0.66974 2.04125 0.844151 2.12814 1.10545 2.21566 1.36738 2.25942 1.65278 2.25942 1.96165 2.25942 2.27115 2.24737 2.55275 2.22327 2.80644 2.1998 3.06013 2.12845 3.29003 2.00922 3.49616 1.89062 3.70228 1.73207 3.80914 1.53355 3.81676 1.33567 3.825 1.16127 3.72606 1.01032 3.51994 0.860007 3.31381 0.761068 2.99259 0.713501 2.55624Z" transform="matrix(1.0014 0 0 -1 24.6296 140.958)"/><g><path d="M31.3923 112.95 301.343 112.95" stroke="#B0B0B0" stroke-width="0.332102" stroke-linejoin="round" stroke-dasharray="1.22878 0.531364" stroke-opacity="0.5" fill="none" transform="matrix(1.0014 0 0 1 0.121763 1.18001e-14)"/></g><path d="M0 0-1.93726 0" stroke="#000000" stroke-width="0.442803" stroke-linejoin="round" fill="none" transform="matrix(1.0014 0 0 1 31.5581 112.951)"/><path d="M1.33187 3.42481C1.12574 3.21868 0.864129 3.02049 0.547018 2.83022L0.547018 3.28211C0.943407 3.55165 1.26844 3.86876 1.52214 4.23344L1.80754 4.23344 1.80754 0.1427 1.33187 0.1427 1.33187 3.42481Z" transform="matrix(1.0014 0 0 -1 12.4354 115.044)"/><path d="M0.21405 2.41354C0.229906 2.83403 0.289206 3.16699 0.39195 3.41244 0.495329 3.65852 0.642151 3.86083 0.832418 4.01939 1.02268 4.17795 1.2564 4.25722 1.53355 4.25722 1.81134 4.25722 2.05329 4.14211 2.25942 3.91189 2.46555 3.6823 2.60031 3.3931 2.66374 3.04427 2.72716 2.69545 2.74682 2.29493 2.72272 1.84274 2.69925 1.39117 2.61998 1.02268 2.48489 0.737284 2.35043 0.451884 2.14843 0.25369 1.87889 0.1427 1.60934 0.0317111 1.33979 0.0434443 1.07025 0.1779 0.800707 0.312989 0.61044 0.491523 0.499451 0.713501 0.388461 0.935479 0.309184 1.16919 0.261617 1.41463 0.21405 1.66072 0.198194 1.99368 0.21405 2.41354ZM0.713501 2.55624C0.665934 2.12053 0.68179 1.73207 0.761068 1.39085 0.840345 1.05027 0.970999 0.808635 1.15302 0.665934 1.33567 0.523234 1.52214 0.495329 1.7124 0.582217 1.90267 0.66974 2.04125 0.844151 2.12814 1.10545 2.21566 1.36738 2.25942 1.65278 2.25942 1.96165 2.25942 2.27115 2.24737 2.55275 2.22327 2.80644 2.1998 3.06013 2.12845 3.29003 2.00922 3.49616 1.89062 3.70228 1.73207 3.80914 1.53355 3.81676 1.33567 3.825 1.16127 3.72606 1.01032 3.51994 0.860007 3.31381 0.761068 2.99259 0.713501 2.55624Z" transform="matrix(1.0014 0 0 -1 15.484 115.044)"/><path d="M0.21405 2.41354C0.229906 2.83403 0.289206 3.16699 0.39195 3.41244 0.495329 3.65852 0.642151 3.86083 0.832418 4.01939 1.02268 4.17795 1.2564 4.25722 1.53355 4.25722 1.81134 4.25722 2.05329 4.14211 2.25942 3.91189 2.46555 3.6823 2.60031 3.3931 2.66374 3.04427 2.72716 2.69545 2.74682 2.29493 2.72272 1.84274 2.69925 1.39117 2.61998 1.02268 2.48489 0.737284 2.35043 0.451884 2.14843 0.25369 1.87889 0.1427 1.60934 0.0317111 1.33979 0.0434443 1.07025 0.1779 0.800707 0.312989 0.61044 0.491523 0.499451 0.713501 0.388461 0.935479 0.309184 1.16919 0.261617 1.41463 0.21405 1.66072 0.198194 1.99368 0.21405 2.41354ZM0.713501 2.55624C0.665934 2.12053 0.68179 1.73207 0.761068 1.39085 0.840345 1.05027 0.970999 0.808635 1.15302 0.665934 1.33567 0.523234 1.52214 0.495329 1.7124 0.582217 1.90267 0.66974 2.04125 0.844151 2.12814 1.10545 2.21566 1.36738 2.25942 1.65278 2.25942 1.96165 2.25942 2.27115 2.24737 2.55275 2.22327 2.80644 2.1998 3.06013 2.12845 3.29003 2.00922 3.49616 1.89062 3.70228 1.73207 3.80914 1.53355 3.81676 1.33567 3.825 1.16127 3.72606 1.01032 3.51994 0.860007 3.31381 0.761068 2.99259 0.713501 2.55624Z" transform="matrix(1.0014 0 0 -1 18.5325 115.044)"/><path d="M0.21405 2.41354C0.229906 2.83403 0.289206 3.16699 0.39195 3.41244 0.495329 3.65852 0.642151 3.86083 0.832418 4.01939 1.02268 4.17795 1.2564 4.25722 1.53355 4.25722 1.81134 4.25722 2.05329 4.14211 2.25942 3.91189 2.46555 3.6823 2.60031 3.3931 2.66374 3.04427 2.72716 2.69545 2.74682 2.29493 2.72272 1.84274 2.69925 1.39117 2.61998 1.02268 2.48489 0.737284 2.35043 0.451884 2.14843 0.25369 1.87889 0.1427 1.60934 0.0317111 1.33979 0.0434443 1.07025 0.1779 0.800707 0.312989 0.61044 0.491523 0.499451 0.713501 0.388461 0.935479 0.309184 1.16919 0.261617 1.41463 0.21405 1.66072 0.198194 1.99368 0.21405 2.41354ZM0.713501 2.55624C0.665934 2.12053 0.68179 1.73207 0.761068 1.39085 0.840345 1.05027 0.970999 0.808635 1.15302 0.665934 1.33567 0.523234 1.52214 0.495329 1.7124 0.582217 1.90267 0.66974 2.04125 0.844151 2.12814 1.10545 2.21566 1.36738 2.25942 1.65278 2.25942 1.96165 2.25942 2.27115 2.24737 2.55275 2.22327 2.80644 2.1998 3.06013 2.12845 3.29003 2.00922 3.49616 1.89062 3.70228 1.73207 3.80914 1.53355 3.81676 1.33567 3.825 1.16127 3.72606 1.01032 3.51994 0.860007 3.31381 0.761068 2.99259 0.713501 2.55624Z" transform="matrix(1.0014 0 0 -1 21.5811 115.044)"/><path d="M0.21405 2.41354C0.229906 2.83403 0.289206 3.16699 0.39195 3.41244 0.495329 3.65852 0.642151 3.86083 0.832418 4.01939 1.02268 4.17795 1.2564 4.25722 1.53355 4.25722 1.81134 4.25722 2.05329 4.14211 2.25942 3.91189 2.46555 3.6823 2.60031 3.3931 2.66374 3.04427 2.72716 2.69545 2.74682 2.29493 2.72272 1.84274 2.69925 1.39117 2.61998 1.02268 2.48489 0.737284 2.35043 0.451884 2.14843 0.25369 1.87889 0.1427 1.60934 0.0317111 1.33979 0.0434443 1.07025 0.1779 0.800707 0.312989 0.61044 0.491523 0.499451 0.713501 0.388461 0.935479 0.309184 1.16919 0.261617 1.41463 0.21405 1.66072 0.198194 1.99368 0.21405 2.41354ZM0.713501 2.55624C0.665934 2.12053 0.68179 1.73207 0.761068 1.39085 0.840345 1.05027 0.970999 0.808635 1.15302 0.665934 1.33567 0.523234 1.52214 0.495329 1.7124 0.582217 1.90267 0.66974 2.04125 0.844151 2.12814 1.10545 2.21566 1.36738 2.25942 1.65278 2.25942 1.96165 2.25942 2.27115 2.24737 2.55275 2.22327 2.80644 2.1998 3.06013 2.12845 3.29003 2.00922 3.49616 1.89062 3.70228 1.73207 3.80914 1.53355 3.81676 1.33567 3.825 1.16127 3.72606 1.01032 3.51994 0.860007 3.31381 0.761068 2.99259 0.713501 2.55624Z" transform="matrix(1.0014 0 0 -1 24.6296 115.044)"/><g><path d="M31.3923 87.0368 301.343 87.0368" stroke="#B0B0B0" stroke-width="0.332102" stroke-linejoin="round" stroke-dasharray="1.22878 0.531364" stroke-opacity="0.5" fill="none" transform="matrix(1.0014 0 0 1 0.121763 1.18001e-14)"/></g><path d="M0 0-1.93726 0" stroke="#000000" stroke-width="0.442803" stroke-linejoin="round" fill="none" transform="matrix(1.0014 0 0 1 31.5581 87.0368)"/><path d="M1.33187 3.42481C1.12574 3.21868 0.864129 3.02049 0.547018 2.83022L0.547018 3.28211C0.943407 3.55165 1.26844 3.86876 1.52214 4.23344L1.80754 4.23344 1.80754 0.1427 1.33187 0.1427 1.33187 3.42481Z" transform="matrix(1.0014 0 0 -1 12.4354 89.1296)"/><path d="M0.523234 1.26052C0.634224 0.832418 0.82449 0.594584 1.09404 0.547018 1.36358 0.499451 1.58143 0.52704 1.7476 0.629784 1.9144 0.733162 2.03332 0.867934 2.10435 1.0341 2.17602 1.2009 2.20773 1.38736 2.19949 1.59349 2.19188 1.79961 2.13638 1.97402 2.033 2.11672 1.93026 2.25942 1.79961 2.35455 1.64105 2.40212 1.48249 2.44969 1.30397 2.44969 1.10545 2.40212 0.907573 2.35455 0.745212 2.24356 0.618368 2.06915L0.21405 2.11672C0.245761 2.21185 0.39639 2.89365 0.665934 4.16209L2.54482 4.16209 2.54482 3.73399 1.02268 3.73399C0.943407 3.30589 0.864129 2.965 0.784851 2.7113 1.02268 2.8223 1.24466 2.87367 1.45079 2.86542 1.65691 2.85781 1.8551 2.81024 2.04537 2.72272 2.23564 2.63583 2.37422 2.51692 2.4611 2.36597 2.54863 2.21566 2.61205 2.06503 2.65137 1.91409 2.69133 1.76377 2.70719 1.60141 2.69894 1.427 2.69133 1.25259 2.65581 1.07406 2.59239 0.891401 2.52896 0.709379 2.43383 0.55875 2.30699 0.439517 2.18015 0.320917 2.02539 0.225783 1.84274 0.154116 1.66072 0.0830832 1.45079 0.0554945 1.21295 0.0713501 0.975118 0.0872057 0.749017 0.174411 0.53465 0.332967 0.320917 0.491523 0.174411 0.761068 0.0951335 1.1416L0.523234 1.26052Z" transform="matrix(1.0014 0 0 -1 15.484 89.1296)"/><path d="M0.21405 2.41354C0.229906 2.83403 0.289206 3.16699 0.39195 3.41244 0.495329 3.65852 0.642151 3.86083 0.832418 4.01939 1.02268 4.17795 1.2564 4.25722 1.53355 4.25722 1.81134 4.25722 2.05329 4.14211 2.25942 3.91189 2.46555 3.6823 2.60031 3.3931 2.66374 3.04427 2.72716 2.69545 2.74682 2.29493 2.72272 1.84274 2.69925 1.39117 2.61998 1.02268 2.48489 0.737284 2.35043 0.451884 2.14843 0.25369 1.87889 0.1427 1.60934 0.0317111 1.33979 0.0434443 1.07025 0.1779 0.800707 0.312989 0.61044 0.491523 0.499451 0.713501 0.388461 0.935479 0.309184 1.16919 0.261617 1.41463 0.21405 1.66072 0.198194 1.99368 0.21405 2.41354ZM0.713501 2.55624C0.665934 2.12053 0.68179 1.73207 0.761068 1.39085 0.840345 1.05027 0.970999 0.808635 1.15302 0.665934 1.33567 0.523234 1.52214 0.495329 1.7124 0.582217 1.90267 0.66974 2.04125 0.844151 2.12814 1.10545 2.21566 1.36738 2.25942 1.65278 2.25942 1.96165 2.25942 2.27115 2.24737 2.55275 2.22327 2.80644 2.1998 3.06013 2.12845 3.29003 2.00922 3.49616 1.89062 3.70228 1.73207 3.80914 1.53355 3.81676 1.33567 3.825 1.16127 3.72606 1.01032 3.51994 0.860007 3.31381 0.761068 2.99259 0.713501 2.55624Z" transform="matrix(1.0014 0 0 -1 18.5325 89.1296)"/><path d="M0.21405 2.41354C0.229906 2.83403 0.289206 3.16699 0.39195 3.41244 0.495329 3.65852 0.642151 3.86083 0.832418 4.01939 1.02268 4.17795 1.2564 4.25722 1.53355 4.25722 1.81134 4.25722 2.05329 4.14211 2.25942 3.91189 2.46555 3.6823 2.60031 3.3931 2.66374 3.04427 2.72716 2.69545 2.74682 2.29493 2.72272 1.84274 2.69925 1.39117 2.61998 1.02268 2.48489 0.737284 2.35043 0.451884 2.14843 0.25369 1.87889 0.1427 1.60934 0.0317111 1.33979 0.0434443 1.07025 0.1779 0.800707 0.312989 0.61044 0.491523 0.499451 0.713501 0.388461 0.935479 0.309184 1.16919 0.261617 1.41463 0.21405 1.66072 0.198194 1.99368 0.21405 2.41354ZM0.713501 2.55624C0.665934 2.12053 0.68179 1.73207 0.761068 1.39085 0.840345 1.05027 0.970999 0.808635 1.15302 0.665934 1.33567 0.523234 1.52214 0.495329 1.7124 0.582217 1.90267 0.66974 2.04125 0.844151 2.12814 1.10545 2.21566 1.36738 2.25942 1.65278 2.25942 1.96165 2.25942 2.27115 2.24737 2.55275 2.22327 2.80644 2.1998 3.06013 2.12845 3.29003 2.00922 3.49616 1.89062 3.70228 1.73207 3.80914 1.53355 3.81676 1.33567 3.825 1.16127 3.72606 1.01032 3.51994 0.860007 3.31381 0.761068 2.99259 0.713501 2.55624Z" transform="matrix(1.0014 0 0 -1 21.5811 89.1296)"/><path d="M0.21405 2.41354C0.229906 2.83403 0.289206 3.16699 0.39195 3.41244 0.495329 3.65852 0.642151 3.86083 0.832418 4.01939 1.02268 4.17795 1.2564 4.25722 1.53355 4.25722 1.81134 4.25722 2.05329 4.14211 2.25942 3.91189 2.46555 3.6823 2.60031 3.3931 2.66374 3.04427 2.72716 2.69545 2.74682 2.29493 2.72272 1.84274 2.69925 1.39117 2.61998 1.02268 2.48489 0.737284 2.35043 0.451884 2.14843 0.25369 1.87889 0.1427 1.60934 0.0317111 1.33979 0.0434443 1.07025 0.1779 0.800707 0.312989 0.61044 0.491523 0.499451 0.713501 0.388461 0.935479 0.309184 1.16919 0.261617 1.41463 0.21405 1.66072 0.198194 1.99368 0.21405 2.41354ZM0.713501 2.55624C0.665934 2.12053 0.68179 1.73207 0.761068 1.39085 0.840345 1.05027 0.970999 0.808635 1.15302 0.665934 1.33567 0.523234 1.52214 0.495329 1.7124 0.582217 1.90267 0.66974 2.04125 0.844151 2.12814 1.10545 2.21566 1.36738 2.25942 1.65278 2.25942 1.96165 2.25942 2.27115 2.24737 2.55275 2.22327 2.80644 2.1998 3.06013 2.12845 3.29003 2.00922 3.49616 1.89062 3.70228 1.73207 3.80914 1.53355 3.81676 1.33567 3.825 1.16127 3.72606 1.01032 3.51994 0.860007 3.31381 0.761068 2.99259 0.713501 2.55624Z" transform="matrix(1.0014 0 0 -1 24.6296 89.1296)"/><g><path d="M31.3923 61.1229 301.343 61.1229" stroke="#B0B0B0" stroke-width="0.332102" stroke-linejoin="round" stroke-dasharray="1.22878 0.531364" stroke-opacity="0.5" fill="none" transform="matrix(1.0014 0 0 1 0.121763 1.18001e-14)"/></g><path d="M0 0-1.93726 0" stroke="#000000" stroke-width="0.442803" stroke-linejoin="round" fill="none" transform="matrix(1.0014 0 0 1 31.5581 61.1229)"/><path d="M0.2854 0.237834C0.301256 0.475667 0.412245 0.689718 0.618368 0.879985 0.82449 1.07025 1.08611 1.36738 1.40322 1.77139 1.72033 2.17602 1.92645 2.48933 2.02159 2.7113 2.11672 2.93328 2.15223 3.12355 2.12814 3.28211 2.10467 3.44066 2.02951 3.57131 1.90267 3.67406 1.77583 3.77744 1.629 3.8212 1.4622 3.80534 1.29603 3.78948 1.13748 3.72606 0.986534 3.61507 0.836223 3.50408 0.721429 3.3376 0.642151 3.11562L0.190267 3.18697C0.317111 3.55165 0.479473 3.81707 0.67735 3.98324 0.875863 4.15004 1.10989 4.24136 1.37944 4.25722 1.53799 4.27308 1.68069 4.26895 1.80754 4.24486 1.93438 4.22139 2.06503 4.1659 2.19949 4.07837 2.33458 3.99149 2.44557 3.86083 2.53245 3.68642 2.61998 3.51201 2.65168 3.30177 2.62759 3.05569 2.60412 2.81024 2.4814 2.51692 2.25942 2.1757 2.03745 1.83512 1.60934 1.30016 0.975118 0.570801L2.68752 0.570801 2.68752 0.1427 0.2854 0.1427 0.2854 0.237834Z" transform="matrix(1.0014 0 0 -1 12.4354 63.2157)"/><path d="M0.21405 2.41354C0.229906 2.83403 0.289206 3.16699 0.39195 3.41244 0.495329 3.65852 0.642151 3.86083 0.832418 4.01939 1.02268 4.17795 1.2564 4.25722 1.53355 4.25722 1.81134 4.25722 2.05329 4.14211 2.25942 3.91189 2.46555 3.6823 2.60031 3.3931 2.66374 3.04427 2.72716 2.69545 2.74682 2.29493 2.72272 1.84274 2.69925 1.39117 2.61998 1.02268 2.48489 0.737284 2.35043 0.451884 2.14843 0.25369 1.87889 0.1427 1.60934 0.0317111 1.33979 0.0434443 1.07025 0.1779 0.800707 0.312989 0.61044 0.491523 0.499451 0.713501 0.388461 0.935479 0.309184 1.16919 0.261617 1.41463 0.21405 1.66072 0.198194 1.99368 0.21405 2.41354ZM0.713501 2.55624C0.665934 2.12053 0.68179 1.73207 0.761068 1.39085 0.840345 1.05027 0.970999 0.808635 1.15302 0.665934 1.33567 0.523234 1.52214 0.495329 1.7124 0.582217 1.90267 0.66974 2.04125 0.844151 2.12814 1.10545 2.21566 1.36738 2.25942 1.65278 2.25942 1.96165 2.25942 2.27115 2.24737 2.55275 2.22327 2.80644 2.1998 3.06013 2.12845 3.29003 2.00922 3.49616 1.89062 3.70228 1.73207 3.80914 1.53355 3.81676 1.33567 3.825 1.16127 3.72606 1.01032 3.51994 0.860007 3.31381 0.761068 2.99259 0.713501 2.55624Z" transform="matrix(1.0014 0 0 -1 15.484 63.2157)"/><path d="M0.21405 2.41354C0.229906 2.83403 0.289206 3.16699 0.39195 3.41244 0.495329 3.65852 0.642151 3.86083 0.832418 4.01939 1.02268 4.17795 1.2564 4.25722 1.53355 4.25722 1.81134 4.25722 2.05329 4.14211 2.25942 3.91189 2.46555 3.6823 2.60031 3.3931 2.66374 3.04427 2.72716 2.69545 2.74682 2.29493 2.72272 1.84274 2.69925 1.39117 2.61998 1.02268 2.48489 0.737284 2.35043 0.451884 2.14843 0.25369 1.87889 0.1427 1.60934 0.0317111 1.33979 0.0434443 1.07025 0.1779 0.800707 0.312989 0.61044 0.491523 0.499451 0.713501 0.388461 0.935479 0.309184 1.16919 0.261617 1.41463 0.21405 1.66072 0.198194 1.99368 0.21405 2.41354ZM0.713501 2.55624C0.665934 2.12053 0.68179 1.73207 0.761068 1.39085 0.840345 1.05027 0.970999 0.808635 1.15302 0.665934 1.33567 0.523234 1.52214 0.495329 1.7124 0.582217 1.90267 0.66974 2.04125 0.844151 2.12814 1.10545 2.21566 1.36738 2.25942 1.65278 2.25942 1.96165 2.25942 2.27115 2.24737 2.55275 2.22327 2.80644 2.1998 3.06013 2.12845 3.29003 2.00922 3.49616 1.89062 3.70228 1.73207 3.80914 1.53355 3.81676 1.33567 3.825 1.16127 3.72606 1.01032 3.51994 0.860007 3.31381 0.761068 2.99259 0.713501 2.55624Z" transform="matrix(1.0014 0 0 -1 18.5325 63.2157)"/><path d="M0.21405 2.41354C0.229906 2.83403 0.289206 3.16699 0.39195 3.41244 0.495329 3.65852 0.642151 3.86083 0.832418 4.01939 1.02268 4.17795 1.2564 4.25722 1.53355 4.25722 1.81134 4.25722 2.05329 4.14211 2.25942 3.91189 2.46555 3.6823 2.60031 3.3931 2.66374 3.04427 2.72716 2.69545 2.74682 2.29493 2.72272 1.84274 2.69925 1.39117 2.61998 1.02268 2.48489 0.737284 2.35043 0.451884 2.14843 0.25369 1.87889 0.1427 1.60934 0.0317111 1.33979 0.0434443 1.07025 0.1779 0.800707 0.312989 0.61044 0.491523 0.499451 0.713501 0.388461 0.935479 0.309184 1.16919 0.261617 1.41463 0.21405 1.66072 0.198194 1.99368 0.21405 2.41354ZM0.713501 2.55624C0.665934 2.12053 0.68179 1.73207 0.761068 1.39085 0.840345 1.05027 0.970999 0.808635 1.15302 0.665934 1.33567 0.523234 1.52214 0.495329 1.7124 0.582217 1.90267 0.66974 2.04125 0.844151 2.12814 1.10545 2.21566 1.36738 2.25942 1.65278 2.25942 1.96165 2.25942 2.27115 2.24737 2.55275 2.22327 2.80644 2.1998 3.06013 2.12845 3.29003 2.00922 3.49616 1.89062 3.70228 1.73207 3.80914 1.53355 3.81676 1.33567 3.825 1.16127 3.72606 1.01032 3.51994 0.860007 3.31381 0.761068 2.99259 0.713501 2.55624Z" transform="matrix(1.0014 0 0 -1 21.5811 63.2157)"/><path d="M0.21405 2.41354C0.229906 2.83403 0.289206 3.16699 0.39195 3.41244 0.495329 3.65852 0.642151 3.86083 0.832418 4.01939 1.02268 4.17795 1.2564 4.25722 1.53355 4.25722 1.81134 4.25722 2.05329 4.14211 2.25942 3.91189 2.46555 3.6823 2.60031 3.3931 2.66374 3.04427 2.72716 2.69545 2.74682 2.29493 2.72272 1.84274 2.69925 1.39117 2.61998 1.02268 2.48489 0.737284 2.35043 0.451884 2.14843 0.25369 1.87889 0.1427 1.60934 0.0317111 1.33979 0.0434443 1.07025 0.1779 0.800707 0.312989 0.61044 0.491523 0.499451 0.713501 0.388461 0.935479 0.309184 1.16919 0.261617 1.41463 0.21405 1.66072 0.198194 1.99368 0.21405 2.41354ZM0.713501 2.55624C0.665934 2.12053 0.68179 1.73207 0.761068 1.39085 0.840345 1.05027 0.970999 0.808635 1.15302 0.665934 1.33567 0.523234 1.52214 0.495329 1.7124 0.582217 1.90267 0.66974 2.04125 0.844151 2.12814 1.10545 2.21566 1.36738 2.25942 1.65278 2.25942 1.96165 2.25942 2.27115 2.24737 2.55275 2.22327 2.80644 2.1998 3.06013 2.12845 3.29003 2.00922 3.49616 1.89062 3.70228 1.73207 3.80914 1.53355 3.81676 1.33567 3.825 1.16127 3.72606 1.01032 3.51994 0.860007 3.31381 0.761068 2.99259 0.713501 2.55624Z" transform="matrix(1.0014 0 0 -1 24.6296 63.2157)"/><g><path d="M31.3923 35.2091 301.343 35.2091" stroke="#B0B0B0" stroke-width="0.332102" stroke-linejoin="round" stroke-dasharray="1.22878 0.531364" stroke-opacity="0.5" fill="none" transform="matrix(1.0014 0 0 1 0.121763 1.18001e-14)"/></g><path d="M0 0-1.93726 0" stroke="#000000" stroke-width="0.442803" stroke-linejoin="round" fill="none" transform="matrix(1.0014 0 0 1 31.5581 35.2091)"/><path d="M0.2854 0.237834C0.301256 0.475667 0.412245 0.689718 0.618368 0.879985 0.82449 1.07025 1.08611 1.36738 1.40322 1.77139 1.72033 2.17602 1.92645 2.48933 2.02159 2.7113 2.11672 2.93328 2.15223 3.12355 2.12814 3.28211 2.10467 3.44066 2.02951 3.57131 1.90267 3.67406 1.77583 3.77744 1.629 3.8212 1.4622 3.80534 1.29603 3.78948 1.13748 3.72606 0.986534 3.61507 0.836223 3.50408 0.721429 3.3376 0.642151 3.11562L0.190267 3.18697C0.317111 3.55165 0.479473 3.81707 0.67735 3.98324 0.875863 4.15004 1.10989 4.24136 1.37944 4.25722 1.53799 4.27308 1.68069 4.26895 1.80754 4.24486 1.93438 4.22139 2.06503 4.1659 2.19949 4.07837 2.33458 3.99149 2.44557 3.86083 2.53245 3.68642 2.61998 3.51201 2.65168 3.30177 2.62759 3.05569 2.60412 2.81024 2.4814 2.51692 2.25942 2.1757 2.03745 1.83512 1.60934 1.30016 0.975118 0.570801L2.68752 0.570801 2.68752 0.1427 0.2854 0.1427 0.2854 0.237834Z" transform="matrix(1.0014 0 0 -1 12.4354 37.302)"/><path d="M0.523234 1.26052C0.634224 0.832418 0.82449 0.594584 1.09404 0.547018 1.36358 0.499451 1.58143 0.52704 1.7476 0.629784 1.9144 0.733162 2.03332 0.867934 2.10435 1.0341 2.17602 1.2009 2.20773 1.38736 2.19949 1.59349 2.19188 1.79961 2.13638 1.97402 2.033 2.11672 1.93026 2.25942 1.79961 2.35455 1.64105 2.40212 1.48249 2.44969 1.30397 2.44969 1.10545 2.40212 0.907573 2.35455 0.745212 2.24356 0.618368 2.06915L0.21405 2.11672C0.245761 2.21185 0.39639 2.89365 0.665934 4.16209L2.54482 4.16209 2.54482 3.73399 1.02268 3.73399C0.943407 3.30589 0.864129 2.965 0.784851 2.7113 1.02268 2.8223 1.24466 2.87367 1.45079 2.86542 1.65691 2.85781 1.8551 2.81024 2.04537 2.72272 2.23564 2.63583 2.37422 2.51692 2.4611 2.36597 2.54863 2.21566 2.61205 2.06503 2.65137 1.91409 2.69133 1.76377 2.70719 1.60141 2.69894 1.427 2.69133 1.25259 2.65581 1.07406 2.59239 0.891401 2.52896 0.709379 2.43383 0.55875 2.30699 0.439517 2.18015 0.320917 2.02539 0.225783 1.84274 0.154116 1.66072 0.0830832 1.45079 0.0554945 1.21295 0.0713501 0.975118 0.0872057 0.749017 0.174411 0.53465 0.332967 0.320917 0.491523 0.174411 0.761068 0.0951335 1.1416L0.523234 1.26052Z" transform="matrix(1.0014 0 0 -1 15.484 37.302)"/><path d="M0.21405 2.41354C0.229906 2.83403 0.289206 3.16699 0.39195 3.41244 0.495329 3.65852 0.642151 3.86083 0.832418 4.01939 1.02268 4.17795 1.2564 4.25722 1.53355 4.25722 1.81134 4.25722 2.05329 4.14211 2.25942 3.91189 2.46555 3.6823 2.60031 3.3931 2.66374 3.04427 2.72716 2.69545 2.74682 2.29493 2.72272 1.84274 2.69925 1.39117 2.61998 1.02268 2.48489 0.737284 2.35043 0.451884 2.14843 0.25369 1.87889 0.1427 1.60934 0.0317111 1.33979 0.0434443 1.07025 0.1779 0.800707 0.312989 0.61044 0.491523 0.499451 0.713501 0.388461 0.935479 0.309184 1.16919 0.261617 1.41463 0.21405 1.66072 0.198194 1.99368 0.21405 2.41354ZM0.713501 2.55624C0.665934 2.12053 0.68179 1.73207 0.761068 1.39085 0.840345 1.05027 0.970999 0.808635 1.15302 0.665934 1.33567 0.523234 1.52214 0.495329 1.7124 0.582217 1.90267 0.66974 2.04125 0.844151 2.12814 1.10545 2.21566 1.36738 2.25942 1.65278 2.25942 1.96165 2.25942 2.27115 2.24737 2.55275 2.22327 2.80644 2.1998 3.06013 2.12845 3.29003 2.00922 3.49616 1.89062 3.70228 1.73207 3.80914 1.53355 3.81676 1.33567 3.825 1.16127 3.72606 1.01032 3.51994 0.860007 3.31381 0.761068 2.99259 0.713501 2.55624Z" transform="matrix(1.0014 0 0 -1 18.5325 37.302)"/><path d="M0.21405 2.41354C0.229906 2.83403 0.289206 3.16699 0.39195 3.41244 0.495329 3.65852 0.642151 3.86083 0.832418 4.01939 1.02268 4.17795 1.2564 4.25722 1.53355 4.25722 1.81134 4.25722 2.05329 4.14211 2.25942 3.91189 2.46555 3.6823 2.60031 3.3931 2.66374 3.04427 2.72716 2.69545 2.74682 2.29493 2.72272 1.84274 2.69925 1.39117 2.61998 1.02268 2.48489 0.737284 2.35043 0.451884 2.14843 0.25369 1.87889 0.1427 1.60934 0.0317111 1.33979 0.0434443 1.07025 0.1779 0.800707 0.312989 0.61044 0.491523 0.499451 0.713501 0.388461 0.935479 0.309184 1.16919 0.261617 1.41463 0.21405 1.66072 0.198194 1.99368 0.21405 2.41354ZM0.713501 2.55624C0.665934 2.12053 0.68179 1.73207 0.761068 1.39085 0.840345 1.05027 0.970999 0.808635 1.15302 0.665934 1.33567 0.523234 1.52214 0.495329 1.7124 0.582217 1.90267 0.66974 2.04125 0.844151 2.12814 1.10545 2.21566 1.36738 2.25942 1.65278 2.25942 1.96165 2.25942 2.27115 2.24737 2.55275 2.22327 2.80644 2.1998 3.06013 2.12845 3.29003 2.00922 3.49616 1.89062 3.70228 1.73207 3.80914 1.53355 3.81676 1.33567 3.825 1.16127 3.72606 1.01032 3.51994 0.860007 3.31381 0.761068 2.99259 0.713501 2.55624Z" transform="matrix(1.0014 0 0 -1 21.5811 37.302)"/><path d="M0.21405 2.41354C0.229906 2.83403 0.289206 3.16699 0.39195 3.41244 0.495329 3.65852 0.642151 3.86083 0.832418 4.01939 1.02268 4.17795 1.2564 4.25722 1.53355 4.25722 1.81134 4.25722 2.05329 4.14211 2.25942 3.91189 2.46555 3.6823 2.60031 3.3931 2.66374 3.04427 2.72716 2.69545 2.74682 2.29493 2.72272 1.84274 2.69925 1.39117 2.61998 1.02268 2.48489 0.737284 2.35043 0.451884 2.14843 0.25369 1.87889 0.1427 1.60934 0.0317111 1.33979 0.0434443 1.07025 0.1779 0.800707 0.312989 0.61044 0.491523 0.499451 0.713501 0.388461 0.935479 0.309184 1.16919 0.261617 1.41463 0.21405 1.66072 0.198194 1.99368 0.21405 2.41354ZM0.713501 2.55624C0.665934 2.12053 0.68179 1.73207 0.761068 1.39085 0.840345 1.05027 0.970999 0.808635 1.15302 0.665934 1.33567 0.523234 1.52214 0.495329 1.7124 0.582217 1.90267 0.66974 2.04125 0.844151 2.12814 1.10545 2.21566 1.36738 2.25942 1.65278 2.25942 1.96165 2.25942 2.27115 2.24737 2.55275 2.22327 2.80644 2.1998 3.06013 2.12845 3.29003 2.00922 3.49616 1.89062 3.70228 1.73207 3.80914 1.53355 3.81676 1.33567 3.825 1.16127 3.72606 1.01032 3.51994 0.860007 3.31381 0.761068 2.99259 0.713501 2.55624Z" transform="matrix(1.0014 0 0 -1 24.6296 37.302)"/><g><path d="M31.3923 9.29527 301.343 9.29527" stroke="#B0B0B0" stroke-width="0.332102" stroke-linejoin="round" stroke-dasharray="1.22878 0.531364" stroke-opacity="0.5" fill="none" transform="matrix(1.0014 0 0 1 0.121763 1.18001e-14)"/></g><path d="M0 0-1.93726 0" stroke="#000000" stroke-width="0.442803" stroke-linejoin="round" fill="none" transform="matrix(1.0014 0 0 1 31.5581 9.29527)"/><path d="M0.237834 1.16539 0.665934 1.23674C0.729357 1.03061 0.832418 0.860007 0.975118 0.724917 1.11782 0.590462 1.29603 0.52704 1.50977 0.53465 1.72413 0.542895 1.89475 0.6301 2.02159 0.796267 2.14843 0.963065 2.20393 1.15333 2.18807 1.36707 2.17221 1.58143 2.08882 1.74792 1.93787 1.86652 1.78756 1.98575 1.54592 2.06915 1.21295 2.11672L1.21295 2.4259C1.54592 2.45761 1.78756 2.54482 1.93787 2.68752 2.08882 2.83022 2.15636 3.01637 2.1405 3.24595 2.12464 3.47618 2.02159 3.64266 1.83132 3.74541 1.64105 3.84879 1.43873 3.86083 1.22437 3.78156 1.01063 3.70228 0.840345 3.4803 0.713501 3.11562L0.2854 3.18697C0.380534 3.47237 0.511184 3.71021 0.67735 3.90047 0.844151 4.09074 1.07025 4.20173 1.35565 4.23344 1.64105 4.26515 1.89062 4.22932 2.10435 4.12594 2.31872 4.02319 2.46935 3.86464 2.55624 3.65027 2.64376 3.43654 2.65581 3.20283 2.59239 2.94914 2.52896 2.69545 2.34663 2.47347 2.04537 2.2832 2.26734 2.18807 2.43763 2.04537 2.55624 1.8551 2.67547 1.66484 2.71511 1.41495 2.67515 1.10545 2.63583 0.796584 2.49725 0.547018 2.25942 0.356751 2.02159 0.166484 1.75204 0.0751555 1.45079 0.0827661 1.14953 0.0910111 0.887912 0.186145 0.665934 0.368167 0.443957 0.550823 0.301256 0.816562 0.237834 1.16539Z" transform="matrix(1.0014 0 0 -1 12.4354 11.3882)"/><path d="M0.21405 2.41354C0.229906 2.83403 0.289206 3.16699 0.39195 3.41244 0.495329 3.65852 0.642151 3.86083 0.832418 4.01939 1.02268 4.17795 1.2564 4.25722 1.53355 4.25722 1.81134 4.25722 2.05329 4.14211 2.25942 3.91189 2.46555 3.6823 2.60031 3.3931 2.66374 3.04427 2.72716 2.69545 2.74682 2.29493 2.72272 1.84274 2.69925 1.39117 2.61998 1.02268 2.48489 0.737284 2.35043 0.451884 2.14843 0.25369 1.87889 0.1427 1.60934 0.0317111 1.33979 0.0434443 1.07025 0.1779 0.800707 0.312989 0.61044 0.491523 0.499451 0.713501 0.388461 0.935479 0.309184 1.16919 0.261617 1.41463 0.21405 1.66072 0.198194 1.99368 0.21405 2.41354ZM0.713501 2.55624C0.665934 2.12053 0.68179 1.73207 0.761068 1.39085 0.840345 1.05027 0.970999 0.808635 1.15302 0.665934 1.33567 0.523234 1.52214 0.495329 1.7124 0.582217 1.90267 0.66974 2.04125 0.844151 2.12814 1.10545 2.21566 1.36738 2.25942 1.65278 2.25942 1.96165 2.25942 2.27115 2.24737 2.55275 2.22327 2.80644 2.1998 3.06013 2.12845 3.29003 2.00922 3.49616 1.89062 3.70228 1.73207 3.80914 1.53355 3.81676 1.33567 3.825 1.16127 3.72606 1.01032 3.51994 0.860007 3.31381 0.761068 2.99259 0.713501 2.55624Z" transform="matrix(1.0014 0 0 -1 15.484 11.3882)"/><path d="M0.21405 2.41354C0.229906 2.83403 0.289206 3.16699 0.39195 3.41244 0.495329 3.65852 0.642151 3.86083 0.832418 4.01939 1.02268 4.17795 1.2564 4.25722 1.53355 4.25722 1.81134 4.25722 2.05329 4.14211 2.25942 3.91189 2.46555 3.6823 2.60031 3.3931 2.66374 3.04427 2.72716 2.69545 2.74682 2.29493 2.72272 1.84274 2.69925 1.39117 2.61998 1.02268 2.48489 0.737284 2.35043 0.451884 2.14843 0.25369 1.87889 0.1427 1.60934 0.0317111 1.33979 0.0434443 1.07025 0.1779 0.800707 0.312989 0.61044 0.491523 0.499451 0.713501 0.388461 0.935479 0.309184 1.16919 0.261617 1.41463 0.21405 1.66072 0.198194 1.99368 0.21405 2.41354ZM0.713501 2.55624C0.665934 2.12053 0.68179 1.73207 0.761068 1.39085 0.840345 1.05027 0.970999 0.808635 1.15302 0.665934 1.33567 0.523234 1.52214 0.495329 1.7124 0.582217 1.90267 0.66974 2.04125 0.844151 2.12814 1.10545 2.21566 1.36738 2.25942 1.65278 2.25942 1.96165 2.25942 2.27115 2.24737 2.55275 2.22327 2.80644 2.1998 3.06013 2.12845 3.29003 2.00922 3.49616 1.89062 3.70228 1.73207 3.80914 1.53355 3.81676 1.33567 3.825 1.16127 3.72606 1.01032 3.51994 0.860007 3.31381 0.761068 2.99259 0.713501 2.55624Z" transform="matrix(1.0014 0 0 -1 18.5325 11.3882)"/><path d="M0.21405 2.41354C0.229906 2.83403 0.289206 3.16699 0.39195 3.41244 0.495329 3.65852 0.642151 3.86083 0.832418 4.01939 1.02268 4.17795 1.2564 4.25722 1.53355 4.25722 1.81134 4.25722 2.05329 4.14211 2.25942 3.91189 2.46555 3.6823 2.60031 3.3931 2.66374 3.04427 2.72716 2.69545 2.74682 2.29493 2.72272 1.84274 2.69925 1.39117 2.61998 1.02268 2.48489 0.737284 2.35043 0.451884 2.14843 0.25369 1.87889 0.1427 1.60934 0.0317111 1.33979 0.0434443 1.07025 0.1779 0.800707 0.312989 0.61044 0.491523 0.499451 0.713501 0.388461 0.935479 0.309184 1.16919 0.261617 1.41463 0.21405 1.66072 0.198194 1.99368 0.21405 2.41354ZM0.713501 2.55624C0.665934 2.12053 0.68179 1.73207 0.761068 1.39085 0.840345 1.05027 0.970999 0.808635 1.15302 0.665934 1.33567 0.523234 1.52214 0.495329 1.7124 0.582217 1.90267 0.66974 2.04125 0.844151 2.12814 1.10545 2.21566 1.36738 2.25942 1.65278 2.25942 1.96165 2.25942 2.27115 2.24737 2.55275 2.22327 2.80644 2.1998 3.06013 2.12845 3.29003 2.00922 3.49616 1.89062 3.70228 1.73207 3.80914 1.53355 3.81676 1.33567 3.825 1.16127 3.72606 1.01032 3.51994 0.860007 3.31381 0.761068 2.99259 0.713501 2.55624Z" transform="matrix(1.0014 0 0 -1 21.5811 11.3882)"/><path d="M0.21405 2.41354C0.229906 2.83403 0.289206 3.16699 0.39195 3.41244 0.495329 3.65852 0.642151 3.86083 0.832418 4.01939 1.02268 4.17795 1.2564 4.25722 1.53355 4.25722 1.81134 4.25722 2.05329 4.14211 2.25942 3.91189 2.46555 3.6823 2.60031 3.3931 2.66374 3.04427 2.72716 2.69545 2.74682 2.29493 2.72272 1.84274 2.69925 1.39117 2.61998 1.02268 2.48489 0.737284 2.35043 0.451884 2.14843 0.25369 1.87889 0.1427 1.60934 0.0317111 1.33979 0.0434443 1.07025 0.1779 0.800707 0.312989 0.61044 0.491523 0.499451 0.713501 0.388461 0.935479 0.309184 1.16919 0.261617 1.41463 0.21405 1.66072 0.198194 1.99368 0.21405 2.41354ZM0.713501 2.55624C0.665934 2.12053 0.68179 1.73207 0.761068 1.39085 0.840345 1.05027 0.970999 0.808635 1.15302 0.665934 1.33567 0.523234 1.52214 0.495329 1.7124 0.582217 1.90267 0.66974 2.04125 0.844151 2.12814 1.10545 2.21566 1.36738 2.25942 1.65278 2.25942 1.96165 2.25942 2.27115 2.24737 2.55275 2.22327 2.80644 2.1998 3.06013 2.12845 3.29003 2.00922 3.49616 1.89062 3.70228 1.73207 3.80914 1.53355 3.81676 1.33567 3.825 1.16127 3.72606 1.01032 3.51994 0.860007 3.31381 0.761068 2.99259 0.713501 2.55624Z" transform="matrix(1.0014 0 0 -1 24.6296 11.3882)"/><path d="M4.51452 4.17722C4.68749 4.55776 4.86045 4.97289 5.03343 5.42261 5.31018 5.31883 5.4918 5.24099 5.57828 5.1891 5.42261 4.99884 5.24099 4.66154 5.03343 4.17722L5.13721 4.17722C5.62153 4.19452 5.96746 4.20317 6.17503 4.20317L6.17503 3.73615C5.98476 3.75345 5.71665 3.7621 5.37072 3.7621L4.72208 3.7621 4.72208 2.75022 5.13721 2.75022C5.53504 2.76752 5.82909 2.77617 6.01935 2.77617L6.01935 2.30915C5.79449 2.32645 5.52639 2.33509 5.21504 2.33509L4.72208 2.33509 4.72208 1.27133 5.52639 1.27133C5.85504 1.28863 6.12314 1.29727 6.3307 1.29727L6.3307 0.830256C6.14044 0.847553 5.87233 0.856201 5.52639 0.856201L4.72208 0.856201 4.72208 0.2854C4.72208-0.0778365 4.73073-0.380534 4.74803-0.622692L4.22912-0.622692 4.22912 0.856201 3.60642 0.856201C3.27778 0.856201 2.95779 0.847553 2.64644 0.830256L2.64644 1.32322C2.95779 1.30592 3.28643 1.28863 3.63237 1.27133L4.22912 1.27133 4.22912 2.33509 3.78804 2.33509C3.494 2.33509 3.23454 2.32645 3.00968 2.30915L3.00968 2.80211C3.21724 2.78481 3.48534 2.76752 3.81399 2.75022L4.22912 2.75022 4.22912 3.7621 3.60642 3.7621C3.31238 3.7621 3.06157 3.75345 2.854 3.73615L2.854 4.22912C3.06157 4.21182 3.31238 4.19452 3.60642 4.17722L4.51452 4.17722ZM1.37511 4.51452C1.37511 4.80856 1.36647 5.07667 1.34917 5.31883L1.89402 5.31883C1.87672 5.04207 1.86808 4.77397 1.86808 4.51452L1.86808 3.89182C2.09294 3.89182 2.32645 3.90047 2.5686 3.91777L2.5686 3.45075C2.32645 3.46805 2.09294 3.4767 1.86808 3.4767L1.86808 2.51671C2.00645 2.6378 2.11023 2.72428 2.17942 2.77617 2.36969 2.53401 2.5859 2.22267 2.82806 1.84213 2.72428 1.79024 2.57725 1.68646 2.38699 1.53078 2.19672 1.87672 2.02375 2.17942 1.86808 2.43888L1.86808 0.492964C1.86808 0.129727 1.87672-0.233509 1.89402-0.596746L1.34917-0.596746C1.36647-0.216212 1.37511 0.147025 1.37511 0.492964L1.37511 2.33509C1.09836 1.67781 0.821608 1.15025 0.544855 0.752419 0.475667 0.908092 0.371885 1.06377 0.233509 1.21944 0.735122 1.89402 1.08107 2.64644 1.27133 3.4767 0.994577 3.4767 0.69188 3.46805 0.363237 3.45075L0.363237 3.91777C0.69188 3.90047 1.02917 3.89182 1.37511 3.89182L1.37511 4.51452ZM3.71021 5.39666C3.86588 5.10262 3.99561 4.80856 4.09939 4.51452 3.89182 4.44532 3.7448 4.38479 3.65831 4.3329 3.53723 4.62694 3.4075 4.91234 3.26913 5.1891 3.4594 5.27558 3.60642 5.34477 3.71021 5.39666Z" transform="matrix(6.13182e-17 -1 -1.0014 -6.12323e-17 9.38689 94.3447)"/><path d="M3.06157 4.07344 3.06157 4.59235C3.06157 4.86911 3.05292 5.12856 3.03562 5.37072L3.60642 5.37072C3.58912 5.18045 3.58048 4.92964 3.58048 4.6183L3.58048 4.07344 5.03343 4.07344C5.32747 4.07344 5.67342 4.08209 6.07125 4.09939L6.07125 3.60642C5.69071 3.62372 5.35342 3.63237 5.05937 3.63237L3.99561 3.63237C4.23776 2.8367 4.58786 2.20952 5.04588 1.7508 5.5046 1.29278 5.92422 0.985929 6.30476 0.830256 6.14908 0.709176 6.00205 0.544855 5.86368 0.337291 5.27558 0.735122 4.79542 1.189 4.42319 1.69891 4.05165 2.20952 3.77074 2.80211 3.58048 3.4767L3.58048 1.03782 3.91777 1.03782C4.19452 1.03782 4.47993 1.04646 4.77397 1.06377L4.77397 0.570801C4.47993 0.588098 4.18587 0.596746 3.89182 0.596746L3.58048 0.596746C3.58048 0.198916 3.58912-0.207564 3.60642-0.622692L3.03562-0.622692C3.05292-0.207564 3.06157 0.198916 3.06157 0.596746L2.72428 0.596746C2.44752 0.596746 2.17078 0.588098 1.89402 0.570801L1.89402 1.06377C2.17078 1.04646 2.44752 1.03782 2.72428 1.03782L3.06157 1.03782 3.06157 3.42481C2.78481 2.71563 2.47762 2.11889 2.13998 1.63457 1.80304 1.15025 1.34917 0.665935 0.778365 0.181618 0.639989 0.371885 0.475667 0.510262 0.2854 0.596746 0.856201 0.942686 1.33187 1.37511 1.7124 1.89402 2.09294 2.41293 2.39563 2.99238 2.62049 3.63237L1.47889 3.63237C1.20214 3.63237 0.908092 3.62372 0.596746 3.60642L0.596746 4.09939C0.908092 4.08209 1.19349 4.07344 1.45295 4.07344L3.06157 4.07344Z" transform="matrix(6.13182e-17 -1 -1.0014 -6.12323e-17 9.38689 87.7027)"/><path d="M4.69613 5.11126C4.66154 5.02478 4.6183 4.90785 4.56641 4.76048 4.51452 4.6138 4.43668 4.3502 4.3329 3.96966L5.52639 3.96966C5.69936 3.96966 5.90693 3.97831 6.14908 3.99561L6.14908 3.52859C5.95882 3.54589 5.81179 3.55453 5.70801 3.55453 5.70801 3.27778 5.66027 2.84086 5.56479 2.24377 5.47001 1.64736 5.30153 1.13296 5.05937 0.700528 5.23234 0.492964 5.42676 0.306849 5.64263 0.142181 5.85919-0.0217942 6.0626-0.138376 6.25286-0.207564 6.0453-0.363237 5.90693-0.510262 5.83774-0.648637 5.63017-0.527558 5.43991-0.389182 5.26694-0.233509 5.09396-0.0778365 4.921 0.11243 4.74803 0.337291 4.55776 0.129727 4.35435-0.0473938 4.13779-0.194072 3.92192-0.341443 3.64967-0.501613 3.32102-0.674583 3.23454-0.51891 3.11346-0.397831 2.95779-0.311346 3.21724-0.207564 3.494-0.0605395 3.78804 0.129727 4.08209 0.319994 4.30695 0.510262 4.46263 0.700528 4.34154 0.942686 4.22462 1.20214 4.11184 1.47889 3.99976 1.75565 3.90047 2.11889 3.81399 2.5686 3.7621 2.43023 3.67562 2.24861 3.55453 2.02375 3.43345 2.09294 3.28643 2.16212 3.11346 2.23131 3.39021 2.71563 3.61507 3.24319 3.78804 3.81399 3.96102 4.38479 4.07344 4.87775 4.12533 5.29288 4.3329 5.2064 4.52316 5.14585 4.69613 5.11126ZM2.17942 2.33509C2.11023 2.2659 2.03239 2.15348 1.94591 1.9978L3.37291 1.9978C3.26913 1.56537 3.08751 1.13296 2.82806 0.700528 3.10481 0.596746 3.32102 0.501613 3.4767 0.415128 3.39021 0.294049 3.31238 0.164321 3.24319 0.0259455 3.08751 0.129727 2.854 0.233509 2.54266 0.337291 2.19672-0.0432425 1.59998-0.380534 0.752419-0.674583 0.665935-0.484316 0.553504-0.354589 0.415128-0.2854 1.22808-0.0951335 1.78159 0.164321 2.07564 0.492964 1.59132 0.614044 1.19349 0.717826 0.882147 0.80431 0.985929 0.959983 1.1243 1.21944 1.29727 1.58268 1.1243 1.58268 0.838904 1.57403 0.441073 1.55673L0.441073 2.02375C0.769717 2.00645 1.10701 1.9978 1.45295 1.9978 1.52214 2.15348 1.57403 2.32645 1.60862 2.51671 1.79888 2.44752 1.98916 2.38699 2.17942 2.33509ZM1.84213 4.09939C1.84213 4.51452 1.83349 4.91234 1.81618 5.29288L2.33509 5.29288C2.31779 4.92964 2.30915 4.53182 2.30915 4.09939 2.89725 4.09939 3.31238 4.10803 3.55453 4.12533L3.55453 3.65831C3.31238 3.67562 2.89725 3.68426 2.30915 3.68426 2.30915 3.18265 2.31779 2.79347 2.33509 2.51671L1.81618 2.51671C1.83349 2.75887 1.84213 3.06157 1.84213 3.42481 1.75565 3.28643 1.59132 3.10897 1.34917 2.8924 1.10701 2.67654 0.882147 2.50807 0.674583 2.38699 0.588098 2.54266 0.458371 2.65509 0.2854 2.72428 0.441073 2.77617 0.648637 2.89725 0.908092 3.08751 1.16755 3.27778 1.36647 3.4767 1.50484 3.68426 1.1589 3.68426 0.830256 3.67562 0.51891 3.65831L0.51891 4.12533C0.812958 4.10803 1.25403 4.09939 1.84213 4.09939ZM4.12533 3.29508C4.28101 2.27456 4.49722 1.56537 4.77397 1.16755 4.94694 1.56537 5.06352 1.96736 5.12372 2.37349 5.18461 2.78032 5.22369 3.174 5.24099 3.55453L4.22912 3.55453 4.12533 3.29508ZM1.50484 1.03782C1.7124 0.985929 1.9978 0.91674 2.36104 0.830256 2.49941 1.00323 2.62914 1.25403 2.75022 1.58268L1.79024 1.58268C1.70376 1.4097 1.60862 1.22808 1.50484 1.03782ZM3.45075 5.00748C3.36427 4.86911 3.29508 4.73938 3.24319 4.6183 3.1913 4.49722 3.1221 4.3502 3.03562 4.17722 2.89725 4.24642 2.75887 4.29831 2.62049 4.3329 2.75887 4.55776 2.8886 4.84316 3.00968 5.1891 3.18265 5.10262 3.32967 5.04207 3.45075 5.00748ZM2.67239 3.50264C2.89725 3.27778 3.11346 3.05292 3.32102 2.82806 3.21724 2.74158 3.10481 2.6378 2.98373 2.51671 2.74158 2.81076 2.54266 3.04427 2.38699 3.21724 2.49077 3.30372 2.5859 3.39886 2.67239 3.50264ZM0.959983 5.1891C1.20214 4.94694 1.40106 4.70478 1.55673 4.46263L1.16755 4.22912C1.04646 4.47127 0.864849 4.69613 0.622692 4.9037 0.778365 5.00748 0.890795 5.10262 0.959983 5.1891Z" transform="matrix(6.13182e-17 -1 -1.0014 -6.12323e-17 9.38689 81.0606)"/><g><path d="M43.6628 164.778 69.1714 164.778 69.1714 95.0543 43.6628 95.0543Z" stroke="#000000" stroke-width="0.442803" fill="#1F77B4" transform="matrix(1.0014 0 0 1 0.121763 1.18001e-14)"/></g><g><path d="M87.6429 164.778 113.152 164.778 113.152 110.375 87.6429 110.375Z" stroke="#000000" stroke-width="0.442803" fill="#1F77B4" transform="matrix(1.0014 0 0 1 0.121763 1.18001e-14)"/></g><g><path d="M131.623 164.778 157.132 164.778 157.132 143.27 131.623 143.27Z" stroke="#000000" stroke-width="0.442803" fill="#1F77B4" transform="matrix(1.0014 0 0 1 0.121763 1.18001e-14)"/></g><g><path d="M175.604 164.778 201.112 164.778 201.112 155.905 175.604 155.905Z" stroke="#000000" stroke-width="0.442803" fill="#1F77B4" transform="matrix(1.0014 0 0 1 0.121763 1.18001e-14)"/></g><g><path d="M219.584 164.778 245.092 164.778 245.092 98.0139 219.584 98.0139Z" stroke="#000000" stroke-width="0.442803" fill="#1F77B4" transform="matrix(1.0014 0 0 1 0.121763 1.18001e-14)"/></g><g><path d="M263.564 164.778 289.072 164.778 289.072 28.513 263.564 28.513Z" stroke="#000000" stroke-width="0.442803" fill="#1F77B4" transform="matrix(1.0014 0 0 1 0.121763 1.18001e-14)"/></g><path d="M31.3923 164.778 31.3923 3.98523" stroke="#000000" stroke-width="0.442803" stroke-linecap="square" fill="none" transform="matrix(1.0014 0 0 1 0.121763 1.18001e-14)"/><path d="M31.3923 164.778 301.343 164.778" stroke="#000000" stroke-width="0.442803" stroke-linecap="square" fill="none" transform="matrix(1.0014 0 0 1 0.121763 1.18001e-14)"/><path d="M1.08971 2.80211C0.921062 2.63347 0.707014 2.47131 0.44756 2.31564L0.44756 2.68536C0.771879 2.90589 1.03782 3.16535 1.24538 3.46372L1.47889 3.46372 1.47889 0.116755 1.08971 0.116755 1.08971 2.80211Z" transform="matrix(1.0014 0 0 -1 49.1352 92.3876)"/><path d="M0.194591 0.953497 0.544855 1.01187C0.596747 0.843226 0.681069 0.703642 0.797824 0.593114 0.914579 0.483105 1.06039 0.431214 1.23527 0.437441 1.41065 0.444187 1.55025 0.515537 1.65403 0.651491 1.7578 0.787962 1.80321 0.943635 1.79024 1.11851 1.77726 1.2939 1.70903 1.43011 1.58553 1.52715 1.46255 1.6247 1.26484 1.69294 0.992415 1.73186L0.992415 1.98483C1.26484 2.01077 1.46255 2.08213 1.58553 2.19888 1.70903 2.31564 1.7643 2.46794 1.75132 2.65578 1.73835 2.84415 1.65403 2.98036 1.49835 3.06442 1.34268 3.14901 1.17714 3.15886 1.00176 3.094 0.82688 3.02914 0.687555 2.84752 0.583774 2.54914L0.233509 2.60752C0.311346 2.84103 0.418241 3.03562 0.554196 3.1913 0.690669 3.34697 0.87566 3.43778 1.10917 3.46372 1.34268 3.48967 1.54687 3.46035 1.72174 3.37577 1.89713 3.2917 2.02038 3.16197 2.09147 2.98659 2.16308 2.81171 2.17294 2.6205 2.12104 2.41293 2.06915 2.20536 1.91997 2.02375 1.67348 1.86808 1.8551 1.79024 1.99443 1.67348 2.09147 1.51781 2.18902 1.36214 2.22145 1.15769 2.18876 0.90446 2.15659 0.651751 2.04321 0.44756 1.84862 0.291887 1.65403 0.136214 1.43349 0.0614908 1.18701 0.0677177 0.940522 0.0744636 0.726474 0.1523 0.544855 0.301227 0.363237 0.450673 0.246482 0.668096 0.194591 0.953497Z" transform="matrix(1.0014 0 0 -1 51.6295 92.3876)"/><path d="M0.856201 0.0972956 0.603233-0.428101 0.408642-0.428101 0.603233 0.0972956 0.408642 0.0972956 0.408642 0.525396 0.856201 0.525396 0.856201 0.0972956Z" transform="matrix(1.0014 0 0 -1 54.1237 92.3876)"/><path d="M1.55673 0.856201 0.0583774 0.856201 0.0583774 1.18701 1.63457 3.46372 1.92645 3.46372 1.92645 1.18701 2.39347 1.18701 2.39347 0.856201 1.92645 0.856201 1.92645 0.116755 1.55673 0.116755 1.55673 0.856201ZM1.55673 1.18701 1.55673 2.72428 0.467019 1.18701 1.55673 1.18701Z" transform="matrix(1.0014 0 0 -1 56.618 92.3876)"/><path d="M0.428101 1.03133C0.51891 0.681069 0.674583 0.486478 0.89512 0.44756 1.11565 0.408642 1.2939 0.431214 1.42986 0.515278 1.56633 0.59986 1.66362 0.710128 1.72174 0.846083 1.78038 0.982553 1.80633 1.13511 1.79958 1.30376 1.79335 1.47241 1.74795 1.61511 1.66337 1.73186 1.5793 1.84862 1.47241 1.92645 1.34268 1.96537 1.21295 2.00429 1.06688 2.00429 0.90446 1.96537 0.74256 1.92645 0.609719 1.83564 0.505937 1.69294L0.175132 1.73186C0.201077 1.8097 0.324319 2.36753 0.544855 3.40535L2.08213 3.40535 2.08213 3.05508 0.836742 3.05508C0.771879 2.70482 0.707014 2.42591 0.642151 2.21834 0.836742 2.30915 1.01836 2.35118 1.18701 2.34443 1.35565 2.33821 1.51781 2.29929 1.67348 2.22768 1.82916 2.15659 1.94254 2.0593 2.01363 1.93579 2.08524 1.81281 2.13713 1.68957 2.1693 1.56607 2.20199 1.44309 2.21497 1.31024 2.20822 1.16755 2.20199 1.02485 2.17294 0.878774 2.12104 0.729328 2.06915 0.580401 1.99131 0.457159 1.88753 0.359605 1.78376 0.262568 1.65714 0.184732 1.50769 0.126095 1.35877 0.0679772 1.18701 0.0454046 0.992415 0.0583774 0.797824 0.0713501 0.612832 0.1427 0.437441 0.272428 0.262568 0.402155 0.1427 0.622692 0.0778365 0.934038L0.428101 1.03133Z" transform="matrix(1.0014 0 0 -1 59.1123 92.3876)"/><path d="M0.194591 0.953497 0.544855 1.01187C0.596747 0.843226 0.681069 0.703642 0.797824 0.593114 0.914579 0.483105 1.06039 0.431214 1.23527 0.437441 1.41065 0.444187 1.55025 0.515537 1.65403 0.651491 1.7578 0.787962 1.80321 0.943635 1.79024 1.11851 1.77726 1.2939 1.70903 1.43011 1.58553 1.52715 1.46255 1.6247 1.26484 1.69294 0.992415 1.73186L0.992415 1.98483C1.26484 2.01077 1.46255 2.08213 1.58553 2.19888 1.70903 2.31564 1.7643 2.46794 1.75132 2.65578 1.73835 2.84415 1.65403 2.98036 1.49835 3.06442 1.34268 3.14901 1.17714 3.15886 1.00176 3.094 0.82688 3.02914 0.687555 2.84752 0.583774 2.54914L0.233509 2.60752C0.311346 2.84103 0.418241 3.03562 0.554196 3.1913 0.690669 3.34697 0.87566 3.43778 1.10917 3.46372 1.34268 3.48967 1.54687 3.46035 1.72174 3.37577 1.89713 3.2917 2.02038 3.16197 2.09147 2.98659 2.16308 2.81171 2.17294 2.6205 2.12104 2.41293 2.06915 2.20536 1.91997 2.02375 1.67348 1.86808 1.8551 1.79024 1.99443 1.67348 2.09147 1.51781 2.18902 1.36214 2.22145 1.15769 2.18876 0.90446 2.15659 0.651751 2.04321 0.44756 1.84862 0.291887 1.65403 0.136214 1.43349 0.0614908 1.18701 0.0677177 0.940522 0.0744636 0.726474 0.1523 0.544855 0.301227 0.363237 0.450673 0.246482 0.668096 0.194591 0.953497Z" transform="matrix(1.0014 0 0 -1 61.6065 92.3876)"/><path d="M1.08971 2.80211C0.921062 2.63347 0.707014 2.47131 0.44756 2.31564L0.44756 2.68536C0.771879 2.90589 1.03782 3.16535 1.24538 3.46372L1.47889 3.46372 1.47889 0.116755 1.08971 0.116755 1.08971 2.80211Z" transform="matrix(1.0014 0 0 -1 93.1771 107.708)"/><path d="M0.175132 1.97471C0.188105 2.31875 0.236623 2.59118 0.320686 2.79199 0.405269 2.99333 0.525396 3.15886 0.681069 3.28859 0.836742 3.41832 1.02796 3.48318 1.25472 3.48318 1.48201 3.48318 1.67997 3.389 1.84862 3.20064 2.01726 3.01279 2.12753 2.77617 2.17942 2.49077 2.23132 2.20536 2.2474 1.87767 2.22768 1.50769 2.20848 1.13823 2.14362 0.836742 2.03309 0.603233 1.92308 0.369723 1.7578 0.207564 1.53727 0.116755 1.31674 0.0259455 1.09619 0.0355454 0.87566 0.145554 0.655124 0.256082 0.499451 0.402155 0.408642 0.583774 0.317832 0.765392 0.252969 0.95661 0.21405 1.15743 0.175132 1.35877 0.162159 1.6312 0.175132 1.97471ZM0.583774 2.09147C0.544855 1.73498 0.557828 1.41715 0.622692 1.13797 0.687555 0.859315 0.794454 0.66161 0.943378 0.544855 1.09282 0.428101 1.24538 0.405269 1.40106 0.476359 1.55673 0.547969 1.67011 0.690669 1.7412 0.90446 1.81281 1.11877 1.84862 1.35228 1.84862 1.60499 1.84862 1.85821 1.83875 2.08861 1.81904 2.29618 1.79984 2.50374 1.74146 2.69184 1.64391 2.86049 1.54687 3.02914 1.41715 3.11657 1.25472 3.1228 1.09282 3.12955 0.950127 3.0486 0.826623 2.87995 0.703642 2.7113 0.622692 2.44848 0.583774 2.09147Z" transform="matrix(1.0014 0 0 -1 95.6714 107.708)"/><path d="M0.856201 0.0972956 0.603233-0.428101 0.408642-0.428101 0.603233 0.0972956 0.408642 0.0972956 0.408642 0.525396 0.856201 0.525396 0.856201 0.0972956Z" transform="matrix(1.0014 0 0 -1 98.1656 107.708)"/><path d="M1.55673 0.856201 0.0583774 0.856201 0.0583774 1.18701 1.63457 3.46372 1.92645 3.46372 1.92645 1.18701 2.39347 1.18701 2.39347 0.856201 1.92645 0.856201 1.92645 0.116755 1.55673 0.116755 1.55673 0.856201ZM1.55673 1.18701 1.55673 2.72428 0.467019 1.18701 1.55673 1.18701Z" transform="matrix(1.0014 0 0 -1 100.66 107.708)"/><path d="M0.622692 0.0583774C0.908095 0.538369 1.1416 0.972956 1.32322 1.36214 0.998899 1.31024 0.729587 1.35228 0.515278 1.48823 0.301486 1.6247 0.171759 1.8097 0.126095 2.04321 0.0809499 2.27672 0.0843226 2.4874 0.136214 2.67524 0.188105 2.8636 0.269055 3.01928 0.379064 3.14226 0.489591 3.26576 0.622692 3.35345 0.778365 3.40535 0.934038 3.45724 1.07337 3.48318 1.19635 3.48318 1.31985 3.48318 1.44646 3.45724 1.57619 3.40535 1.70592 3.35345 1.82267 3.27562 1.92645 3.17184 2.03023 3.06806 2.10159 2.9609 2.1405 2.85037 2.17942 2.74037 2.19888 2.59766 2.19888 2.42227 2.19888 2.2474 2.13402 2.02375 2.00429 1.75132 1.87456 1.47889 1.55673 0.914579 1.05079 0.0583774L0.622692 0.0583774ZM0.515278 2.2378C0.534996 2.06915 0.606346 1.92957 0.729328 1.81904 0.852831 1.70903 0.985931 1.66051 1.12863 1.67348 1.27133 1.68646 1.38471 1.72538 1.46877 1.79024 1.55336 1.8551 1.63457 1.96537 1.7124 2.12104 1.7643 2.31564 1.77726 2.48091 1.75132 2.61686 1.72538 2.75333 1.65714 2.86697 1.54661 2.95779 1.4366 3.0486 1.31674 3.094 1.18701 3.094 1.10917 3.10698 1.0085 3.08752 0.885001 3.03562 0.762019 2.98373 0.664724 2.87995 0.593114 2.72428 0.522024 2.5686 0.496078 2.40645 0.515278 2.2378Z" transform="matrix(1.0014 0 0 -1 103.154 107.708)"/><path d="M0.66161 0.116755C0.89512 1.10269 1.30376 2.08213 1.88753 3.05508L0.21405 3.05508 0.21405 3.40535 2.29618 3.40535 2.29618 3.07454C1.68646 2.08861 1.2843 1.10269 1.08971 0.116755L0.66161 0.116755Z" transform="matrix(1.0014 0 0 -1 105.648 107.708)"/><path d="M1.55673 0.856201 0.0583774 0.856201 0.0583774 1.18701 1.63457 3.46372 1.92645 3.46372 1.92645 1.18701 2.39347 1.18701 2.39347 0.856201 1.92645 0.856201 1.92645 0.116755 1.55673 0.116755 1.55673 0.856201ZM1.55673 1.18701 1.55673 2.72428 0.467019 1.18701 1.55673 1.18701Z" transform="matrix(1.0014 0 0 -1 138.466 140.603)"/><path d="M0.856201 0.0972956 0.603233-0.428101 0.408642-0.428101 0.603233 0.0972956 0.408642 0.0972956 0.408642 0.525396 0.856201 0.525396 0.856201 0.0972956Z" transform="matrix(1.0014 0 0 -1 140.96 140.603)"/><path d="M1.08971 2.80211C0.921062 2.63347 0.707014 2.47131 0.44756 2.31564L0.44756 2.68536C0.771879 2.90589 1.03782 3.16535 1.24538 3.46372L1.47889 3.46372 1.47889 0.116755 1.08971 0.116755 1.08971 2.80211Z" transform="matrix(1.0014 0 0 -1 143.455 140.603)"/><path d="M0.428101 1.03133C0.51891 0.681069 0.674583 0.486478 0.89512 0.44756 1.11565 0.408642 1.2939 0.431214 1.42986 0.515278 1.56633 0.59986 1.66362 0.710128 1.72174 0.846083 1.78038 0.982553 1.80633 1.13511 1.79958 1.30376 1.79335 1.47241 1.74795 1.61511 1.66337 1.73186 1.5793 1.84862 1.47241 1.92645 1.34268 1.96537 1.21295 2.00429 1.06688 2.00429 0.90446 1.96537 0.74256 1.92645 0.609719 1.83564 0.505937 1.69294L0.175132 1.73186C0.201077 1.8097 0.324319 2.36753 0.544855 3.40535L2.08213 3.40535 2.08213 3.05508 0.836742 3.05508C0.771879 2.70482 0.707014 2.42591 0.642151 2.21834 0.836742 2.30915 1.01836 2.35118 1.18701 2.34443 1.35565 2.33821 1.51781 2.29929 1.67348 2.22768 1.82916 2.15659 1.94254 2.0593 2.01363 1.93579 2.08524 1.81281 2.13713 1.68957 2.1693 1.56607 2.20199 1.44309 2.21497 1.31024 2.20822 1.16755 2.20199 1.02485 2.17294 0.878774 2.12104 0.729328 2.06915 0.580401 1.99131 0.457159 1.88753 0.359605 1.78376 0.262568 1.65714 0.184732 1.50769 0.126095 1.35877 0.0679772 1.18701 0.0454046 0.992415 0.0583774 0.797824 0.0713501 0.612832 0.1427 0.437441 0.272428 0.262568 0.402155 0.1427 0.622692 0.0778365 0.934038L0.428101 1.03133Z" transform="matrix(1.0014 0 0 -1 145.949 140.603)"/><path d="M0.175132 1.97471C0.188105 2.31875 0.236623 2.59118 0.320686 2.79199 0.405269 2.99333 0.525396 3.15886 0.681069 3.28859 0.836742 3.41832 1.02796 3.48318 1.25472 3.48318 1.48201 3.48318 1.67997 3.389 1.84862 3.20064 2.01726 3.01279 2.12753 2.77617 2.17942 2.49077 2.23132 2.20536 2.2474 1.87767 2.22768 1.50769 2.20848 1.13823 2.14362 0.836742 2.03309 0.603233 1.92308 0.369723 1.7578 0.207564 1.53727 0.116755 1.31674 0.0259455 1.09619 0.0355454 0.87566 0.145554 0.655124 0.256082 0.499451 0.402155 0.408642 0.583774 0.317832 0.765392 0.252969 0.95661 0.21405 1.15743 0.175132 1.35877 0.162159 1.6312 0.175132 1.97471ZM0.583774 2.09147C0.544855 1.73498 0.557828 1.41715 0.622692 1.13797 0.687555 0.859315 0.794454 0.66161 0.943378 0.544855 1.09282 0.428101 1.24538 0.405269 1.40106 0.476359 1.55673 0.547969 1.67011 0.690669 1.7412 0.90446 1.81281 1.11877 1.84862 1.35228 1.84862 1.60499 1.84862 1.85821 1.83875 2.08861 1.81904 2.29618 1.79984 2.50374 1.74146 2.69184 1.64391 2.86049 1.54687 3.02914 1.41715 3.11657 1.25472 3.1228 1.09282 3.12955 0.950127 3.0486 0.826623 2.87995 0.703642 2.7113 0.622692 2.44848 0.583774 2.09147Z" transform="matrix(1.0014 0 0 -1 148.443 140.603)"/><path d="M1.08971 2.80211C0.921062 2.63347 0.707014 2.47131 0.44756 2.31564L0.44756 2.68536C0.771879 2.90589 1.03782 3.16535 1.24538 3.46372L1.47889 3.46372 1.47889 0.116755 1.08971 0.116755 1.08971 2.80211Z" transform="matrix(1.0014 0 0 -1 182.508 153.239)"/><path d="M0.856201 0.0972956 0.603233-0.428101 0.408642-0.428101 0.603233 0.0972956 0.408642 0.0972956 0.408642 0.525396 0.856201 0.525396 0.856201 0.0972956Z" transform="matrix(1.0014 0 0 -1 185.002 153.239)"/><path d="M0.66161 0.116755C0.89512 1.10269 1.30376 2.08213 1.88753 3.05508L0.21405 3.05508 0.21405 3.40535 2.29618 3.40535 2.29618 3.07454C1.68646 2.08861 1.2843 1.10269 1.08971 0.116755L0.66161 0.116755Z" transform="matrix(1.0014 0 0 -1 187.497 153.239)"/><path d="M1.08971 2.80211C0.921062 2.63347 0.707014 2.47131 0.44756 2.31564L0.44756 2.68536C0.771879 2.90589 1.03782 3.16535 1.24538 3.46372L1.47889 3.46372 1.47889 0.116755 1.08971 0.116755 1.08971 2.80211Z" transform="matrix(1.0014 0 0 -1 189.991 153.239)"/><path d="M0.233509 0.194591C0.246482 0.389182 0.337291 0.564314 0.505937 0.719987 0.674583 0.87566 0.888636 1.11877 1.14809 1.44932 1.40754 1.78038 1.57619 2.03672 1.65403 2.21834 1.73186 2.39996 1.76092 2.55563 1.7412 2.68536 1.722 2.81509 1.66051 2.92198 1.55673 3.00604 1.45295 3.09063 1.33282 3.12643 1.19635 3.11346 1.06039 3.10048 0.930668 3.0486 0.807164 2.95779 0.684183 2.86697 0.59026 2.73076 0.525396 2.54914L0.155673 2.60752C0.259455 2.90589 0.392296 3.12306 0.554196 3.25901 0.716615 3.39548 0.908095 3.47021 1.12863 3.48318 1.25836 3.49616 1.37511 3.49278 1.47889 3.47306 1.58267 3.45386 1.68957 3.40846 1.79958 3.33685 1.91011 3.26576 2.00092 3.15886 2.07201 3.01616 2.14362 2.87347 2.16956 2.70145 2.14984 2.50011 2.13064 2.29929 2.03023 2.0593 1.84862 1.78012 1.667 1.50147 1.31674 1.06377 0.797824 0.467019L2.19888 0.467019 2.19888 0.116755 0.233509 0.116755 0.233509 0.194591Z" transform="matrix(1.0014 0 0 -1 192.485 153.239)"/><path d="M1.08971 2.80211C0.921062 2.63347 0.707014 2.47131 0.44756 2.31564L0.44756 2.68536C0.771879 2.90589 1.03782 3.16535 1.24538 3.46372L1.47889 3.46372 1.47889 0.116755 1.08971 0.116755 1.08971 2.80211Z" transform="matrix(1.0014 0 0 -1 225.303 95.3471)"/><path d="M0.233509 0.194591C0.246482 0.389182 0.337291 0.564314 0.505937 0.719987 0.674583 0.87566 0.888636 1.11877 1.14809 1.44932 1.40754 1.78038 1.57619 2.03672 1.65403 2.21834 1.73186 2.39996 1.76092 2.55563 1.7412 2.68536 1.722 2.81509 1.66051 2.92198 1.55673 3.00604 1.45295 3.09063 1.33282 3.12643 1.19635 3.11346 1.06039 3.10048 0.930668 3.0486 0.807164 2.95779 0.684183 2.86697 0.59026 2.73076 0.525396 2.54914L0.155673 2.60752C0.259455 2.90589 0.392296 3.12306 0.554196 3.25901 0.716615 3.39548 0.908095 3.47021 1.12863 3.48318 1.25836 3.49616 1.37511 3.49278 1.47889 3.47306 1.58267 3.45386 1.68957 3.40846 1.79958 3.33685 1.91011 3.26576 2.00092 3.15886 2.07201 3.01616 2.14362 2.87347 2.16956 2.70145 2.14984 2.50011 2.13064 2.29929 2.03023 2.0593 1.84862 1.78012 1.667 1.50147 1.31674 1.06377 0.797824 0.467019L2.19888 0.467019 2.19888 0.116755 0.233509 0.116755 0.233509 0.194591Z" transform="matrix(1.0014 0 0 -1 227.797 95.3471)"/><path d="M0.856201 0.0972956 0.603233-0.428101 0.408642-0.428101 0.603233 0.0972956 0.408642 0.0972956 0.408642 0.525396 0.856201 0.525396 0.856201 0.0972956Z" transform="matrix(1.0014 0 0 -1 230.292 95.3471)"/><path d="M0.136214 1.07025C0.136214 1.22592 0.175132 1.37823 0.252969 1.52715 0.330805 1.6766 0.460533 1.79672 0.642151 1.88753 0.486478 1.97835 0.382696 2.07876 0.330805 2.18876 0.278914 2.29929 0.249596 2.42591 0.24285 2.5686 0.236623 2.7113 0.256082 2.83455 0.301227 2.93833 0.346892 3.04211 0.415128 3.1394 0.505937 3.23021 0.596747 3.32103 0.697156 3.38252 0.807164 3.41469 0.917692 3.44738 1.03782 3.46372 1.16755 3.46372 1.29728 3.46372 1.41403 3.45075 1.51781 3.42481 1.62159 3.39886 1.73186 3.3436 1.84862 3.25901 1.96537 3.17495 2.04969 3.05508 2.10159 2.89941 2.15348 2.74374 2.1501 2.56212 2.09147 2.35455 2.03335 2.14699 1.88105 1.98483 1.63457 1.86808 1.8551 1.80321 2.01077 1.70254 2.10159 1.56607 2.1924 1.43011 2.2378 1.26484 2.2378 1.07025 2.2378 0.87566 2.20848 0.719987 2.14984 0.603233 2.09172 0.486478 2.02686 0.389182 1.95525 0.311346 1.88416 0.233509 1.78687 0.171759 1.66337 0.126095 1.54038 0.0809499 1.38471 0.0583774 1.19635 0.0583774 1.0085 0.0583774 0.846339 0.0809499 0.709869 0.126095 0.573914 0.171759 0.460533 0.239996 0.369723 0.330805 0.278914 0.421615 0.217164 0.52851 0.184472 0.651491 0.1523 0.774992 0.136214 0.914579 0.136214 1.07025ZM0.534737 1.08971C0.52851 0.934038 0.554455 0.797824 0.612573 0.681069 0.67121 0.564314 0.778365 0.489591 0.934038 0.4569 1.08971 0.424728 1.25187 0.428101 1.42052 0.467019 1.58916 0.505937 1.70592 0.596747 1.77078 0.739447 1.83564 0.882144 1.85821 1.02485 1.8385 1.16755 1.8193 1.31024 1.73835 1.43011 1.59565 1.52715 1.45295 1.6247 1.29728 1.667 1.12863 1.65403 0.959981 1.64105 0.820397 1.58267 0.709869 1.47889 0.59986 1.37511 0.541483 1.24538 0.534737 1.08971ZM0.603233 2.60752C0.603233 2.47779 0.648637 2.35455 0.739447 2.2378 0.830258 2.12104 0.972956 2.06267 1.16755 2.06267 1.36214 2.06267 1.50795 2.12104 1.60499 2.2378 1.70254 2.35455 1.74795 2.49388 1.7412 2.65578 1.73498 2.8182 1.6766 2.93833 1.56607 3.01616 1.45606 3.094 1.30687 3.12643 1.11851 3.11346 0.930668 3.10048 0.797824 3.04522 0.719987 2.94767 0.642151 2.85063 0.603233 2.73725 0.603233 2.60752Z" transform="matrix(1.0014 0 0 -1 232.786 95.3471)"/><path d="M0.136214 1.07025C0.136214 1.22592 0.175132 1.37823 0.252969 1.52715 0.330805 1.6766 0.460533 1.79672 0.642151 1.88753 0.486478 1.97835 0.382696 2.07876 0.330805 2.18876 0.278914 2.29929 0.249596 2.42591 0.24285 2.5686 0.236623 2.7113 0.256082 2.83455 0.301227 2.93833 0.346892 3.04211 0.415128 3.1394 0.505937 3.23021 0.596747 3.32103 0.697156 3.38252 0.807164 3.41469 0.917692 3.44738 1.03782 3.46372 1.16755 3.46372 1.29728 3.46372 1.41403 3.45075 1.51781 3.42481 1.62159 3.39886 1.73186 3.3436 1.84862 3.25901 1.96537 3.17495 2.04969 3.05508 2.10159 2.89941 2.15348 2.74374 2.1501 2.56212 2.09147 2.35455 2.03335 2.14699 1.88105 1.98483 1.63457 1.86808 1.8551 1.80321 2.01077 1.70254 2.10159 1.56607 2.1924 1.43011 2.2378 1.26484 2.2378 1.07025 2.2378 0.87566 2.20848 0.719987 2.14984 0.603233 2.09172 0.486478 2.02686 0.389182 1.95525 0.311346 1.88416 0.233509 1.78687 0.171759 1.66337 0.126095 1.54038 0.0809499 1.38471 0.0583774 1.19635 0.0583774 1.0085 0.0583774 0.846339 0.0809499 0.709869 0.126095 0.573914 0.171759 0.460533 0.239996 0.369723 0.330805 0.278914 0.421615 0.217164 0.52851 0.184472 0.651491 0.1523 0.774992 0.136214 0.914579 0.136214 1.07025ZM0.534737 1.08971C0.52851 0.934038 0.554455 0.797824 0.612573 0.681069 0.67121 0.564314 0.778365 0.489591 0.934038 0.4569 1.08971 0.424728 1.25187 0.428101 1.42052 0.467019 1.58916 0.505937 1.70592 0.596747 1.77078 0.739447 1.83564 0.882144 1.85821 1.02485 1.8385 1.16755 1.8193 1.31024 1.73835 1.43011 1.59565 1.52715 1.45295 1.6247 1.29728 1.667 1.12863 1.65403 0.959981 1.64105 0.820397 1.58267 0.709869 1.47889 0.59986 1.37511 0.541483 1.24538 0.534737 1.08971ZM0.603233 2.60752C0.603233 2.47779 0.648637 2.35455 0.739447 2.2378 0.830258 2.12104 0.972956 2.06267 1.16755 2.06267 1.36214 2.06267 1.50795 2.12104 1.60499 2.2378 1.70254 2.35455 1.74795 2.49388 1.7412 2.65578 1.73498 2.8182 1.6766 2.93833 1.56607 3.01616 1.45606 3.094 1.30687 3.12643 1.11851 3.11346 0.930668 3.10048 0.797824 3.04522 0.719987 2.94767 0.642151 2.85063 0.603233 2.73725 0.603233 2.60752Z" transform="matrix(1.0014 0 0 -1 235.28 95.3471)"/><path d="M0.233509 0.194591C0.246482 0.389182 0.337291 0.564314 0.505937 0.719987 0.674583 0.87566 0.888636 1.11877 1.14809 1.44932 1.40754 1.78038 1.57619 2.03672 1.65403 2.21834 1.73186 2.39996 1.76092 2.55563 1.7412 2.68536 1.722 2.81509 1.66051 2.92198 1.55673 3.00604 1.45295 3.09063 1.33282 3.12643 1.19635 3.11346 1.06039 3.10048 0.930668 3.0486 0.807164 2.95779 0.684183 2.86697 0.59026 2.73076 0.525396 2.54914L0.155673 2.60752C0.259455 2.90589 0.392296 3.12306 0.554196 3.25901 0.716615 3.39548 0.908095 3.47021 1.12863 3.48318 1.25836 3.49616 1.37511 3.49278 1.47889 3.47306 1.58267 3.45386 1.68957 3.40846 1.79958 3.33685 1.91011 3.26576 2.00092 3.15886 2.07201 3.01616 2.14362 2.87347 2.16956 2.70145 2.14984 2.50011 2.13064 2.29929 2.03023 2.0593 1.84862 1.78012 1.667 1.50147 1.31674 1.06377 0.797824 0.467019L2.19888 0.467019 2.19888 0.116755 0.233509 0.116755 0.233509 0.194591Z" transform="matrix(1.0014 0 0 -1 237.774 95.3471)"/><path d="M0.233509 0.194591C0.246482 0.389182 0.337291 0.564314 0.505937 0.719987 0.674583 0.87566 0.888636 1.11877 1.14809 1.44932 1.40754 1.78038 1.57619 2.03672 1.65403 2.21834 1.73186 2.39996 1.76092 2.55563 1.7412 2.68536 1.722 2.81509 1.66051 2.92198 1.55673 3.00604 1.45295 3.09063 1.33282 3.12643 1.19635 3.11346 1.06039 3.10048 0.930668 3.0486 0.807164 2.95779 0.684183 2.86697 0.59026 2.73076 0.525396 2.54914L0.155673 2.60752C0.259455 2.90589 0.392296 3.12306 0.554196 3.25901 0.716615 3.39548 0.908095 3.47021 1.12863 3.48318 1.25836 3.49616 1.37511 3.49278 1.47889 3.47306 1.58267 3.45386 1.68957 3.40846 1.79958 3.33685 1.91011 3.26576 2.00092 3.15886 2.07201 3.01616 2.14362 2.87347 2.16956 2.70145 2.14984 2.50011 2.13064 2.29929 2.03023 2.0593 1.84862 1.78012 1.667 1.50147 1.31674 1.06377 0.797824 0.467019L2.19888 0.467019 2.19888 0.116755 0.233509 0.116755 0.233509 0.194591Z" transform="matrix(1.0014 0 0 -1 269.345 25.8463)"/><path d="M0.194591 1.25472C0.207564 1.44309 0.243109 1.60213 0.301227 1.73186 0.359864 1.86159 0.44756 2.02375 0.564314 2.21834L1.36214 3.46372 1.8097 3.46372 0.992415 2.17942C1.34268 2.27023 1.62159 2.25726 1.82916 2.1405 2.03672 2.02375 2.17605 1.89065 2.24714 1.7412 2.31875 1.59228 2.35767 1.43011 2.36389 1.25472 2.37064 1.07985 2.34469 0.908095 2.28606 0.739447 2.22794 0.570801 2.12416 0.418241 1.97471 0.281768 1.82579 0.145813 1.61822 0.0713501 1.35202 0.0583774 1.08634 0.0454046 0.859315 0.093923 0.67095 0.203932 0.483105 0.314459 0.353378 0.470132 0.281768 0.67095 0.210678 0.87229 0.181618 1.06688 0.194591 1.25472ZM0.797824 0.612573C0.914579 0.489591 1.07025 0.421615 1.26484 0.408642 1.45943 0.395669 1.62159 0.460533 1.75132 0.603233 1.88105 0.745933 1.94591 0.953497 1.94591 1.22592 1.94591 1.49835 1.86471 1.68646 1.70228 1.79024 1.54038 1.89402 1.35877 1.93294 1.15743 1.90699 0.95661 1.88105 0.810799 1.78376 0.719987 1.61511 0.629178 1.44646 0.59026 1.26796 0.603233 1.07959 0.616206 0.891749 0.681069 0.736074 0.797824 0.612573Z" transform="matrix(1.0014 0 0 -1 271.839 25.8463)"/><path d="M0.856201 0.0972956 0.603233-0.428101 0.408642-0.428101 0.603233 0.0972956 0.408642 0.0972956 0.408642 0.525396 0.856201 0.525396 0.856201 0.0972956Z" transform="matrix(1.0014 0 0 -1 274.334 25.8463)"/><path d="M0.233509 0.194591C0.246482 0.389182 0.337291 0.564314 0.505937 0.719987 0.674583 0.87566 0.888636 1.11877 1.14809 1.44932 1.40754 1.78038 1.57619 2.03672 1.65403 2.21834 1.73186 2.39996 1.76092 2.55563 1.7412 2.68536 1.722 2.81509 1.66051 2.92198 1.55673 3.00604 1.45295 3.09063 1.33282 3.12643 1.19635 3.11346 1.06039 3.10048 0.930668 3.0486 0.807164 2.95779 0.684183 2.86697 0.59026 2.73076 0.525396 2.54914L0.155673 2.60752C0.259455 2.90589 0.392296 3.12306 0.554196 3.25901 0.716615 3.39548 0.908095 3.47021 1.12863 3.48318 1.25836 3.49616 1.37511 3.49278 1.47889 3.47306 1.58267 3.45386 1.68957 3.40846 1.79958 3.33685 1.91011 3.26576 2.00092 3.15886 2.07201 3.01616 2.14362 2.87347 2.16956 2.70145 2.14984 2.50011 2.13064 2.29929 2.03023 2.0593 1.84862 1.78012 1.667 1.50147 1.31674 1.06377 0.797824 0.467019L2.19888 0.467019 2.19888 0.116755 0.233509 0.116755 0.233509 0.194591Z" transform="matrix(1.0014 0 0 -1 276.828 25.8463)"/><path d="M0.622692 0.0583774C0.908095 0.538369 1.1416 0.972956 1.32322 1.36214 0.998899 1.31024 0.729587 1.35228 0.515278 1.48823 0.301486 1.6247 0.171759 1.8097 0.126095 2.04321 0.0809499 2.27672 0.0843226 2.4874 0.136214 2.67524 0.188105 2.8636 0.269055 3.01928 0.379064 3.14226 0.489591 3.26576 0.622692 3.35345 0.778365 3.40535 0.934038 3.45724 1.07337 3.48318 1.19635 3.48318 1.31985 3.48318 1.44646 3.45724 1.57619 3.40535 1.70592 3.35345 1.82267 3.27562 1.92645 3.17184 2.03023 3.06806 2.10159 2.9609 2.1405 2.85037 2.17942 2.74037 2.19888 2.59766 2.19888 2.42227 2.19888 2.2474 2.13402 2.02375 2.00429 1.75132 1.87456 1.47889 1.55673 0.914579 1.05079 0.0583774L0.622692 0.0583774ZM0.515278 2.2378C0.534996 2.06915 0.606346 1.92957 0.729328 1.81904 0.852831 1.70903 0.985931 1.66051 1.12863 1.67348 1.27133 1.68646 1.38471 1.72538 1.46877 1.79024 1.55336 1.8551 1.63457 1.96537 1.7124 2.12104 1.7643 2.31564 1.77726 2.48091 1.75132 2.61686 1.72538 2.75333 1.65714 2.86697 1.54661 2.95779 1.4366 3.0486 1.31674 3.094 1.18701 3.094 1.10917 3.10698 1.0085 3.08752 0.885001 3.03562 0.762019 2.98373 0.664724 2.87995 0.593114 2.72428 0.522024 2.5686 0.496078 2.40645 0.515278 2.2378Z" transform="matrix(1.0014 0 0 -1 279.322 25.8463)"/><path d="M0.233509 0.194591C0.246482 0.389182 0.337291 0.564314 0.505937 0.719987 0.674583 0.87566 0.888636 1.11877 1.14809 1.44932 1.40754 1.78038 1.57619 2.03672 1.65403 2.21834 1.73186 2.39996 1.76092 2.55563 1.7412 2.68536 1.722 2.81509 1.66051 2.92198 1.55673 3.00604 1.45295 3.09063 1.33282 3.12643 1.19635 3.11346 1.06039 3.10048 0.930668 3.0486 0.807164 2.95779 0.684183 2.86697 0.59026 2.73076 0.525396 2.54914L0.155673 2.60752C0.259455 2.90589 0.392296 3.12306 0.554196 3.25901 0.716615 3.39548 0.908095 3.47021 1.12863 3.48318 1.25836 3.49616 1.37511 3.49278 1.47889 3.47306 1.58267 3.45386 1.68957 3.40846 1.79958 3.33685 1.91011 3.26576 2.00092 3.15886 2.07201 3.01616 2.14362 2.87347 2.16956 2.70145 2.14984 2.50011 2.13064 2.29929 2.03023 2.0593 1.84862 1.78012 1.667 1.50147 1.31674 1.06377 0.797824 0.467019L2.19888 0.467019 2.19888 0.116755 0.233509 0.116755 0.233509 0.194591Z" transform="matrix(1.0014 0 0 -1 281.816 25.8463)"/></g></svg>